<svg version="1.1" id="Layer_1" xmlns="http://www.w3.org/2000/svg" xmlns:xlink="http://www.w3.org/1999/xlink" x="0px" y="0px"
	 width="100%" viewBox="0 0 64 64" enable-background="new 0 0 64 64" xml:space="preserve">
<path fill="#04C202" opacity="1.000000" stroke="none" 
	d="
M10.000000,65.000000 
	C7.034077,65.000000 4.068153,65.000000 1.000000,65.000000 
	C1.000000,55.312626 1.000000,45.624973 1.455875,35.468216 
	C3.898087,34.996780 5.990056,35.379509 7.837970,34.872581 
	C9.368446,34.452728 10.611050,32.983490 11.983246,31.602467 
	C11.968915,30.471535 11.952533,29.717314 11.946627,28.528370 
	C11.981322,26.063662 12.005541,24.033676 12.267219,22.340204 
	C12.632215,26.111156 12.661704,29.552816 12.914000,32.978065 
	C13.183253,36.633549 13.662962,40.273525 14.370115,43.850822 
	C16.118420,42.837738 17.547403,41.894104 19.321655,40.891945 
	C24.032024,38.294315 28.397129,35.755211 33.059204,33.043362 
	C31.801022,32.097965 30.920511,31.436350 30.059273,30.602324 
	C30.078545,30.429913 30.091722,30.083267 30.457825,30.134258 
	C38.272923,33.035439 38.731068,32.927467 40.247902,28.276192 
	C42.736340,32.520340 42.310539,36.303440 39.084305,39.448353 
	C35.838154,42.612686 32.109760,42.811119 28.130323,40.501568 
	C27.307981,40.024303 25.971844,40.432331 23.835667,40.432331 
	C33.240471,48.146179 41.192471,45.258877 45.385895,33.928108 
	C46.766846,32.574955 47.831284,31.300644 49.008492,30.447861 
	C50.076344,38.548691 46.389629,44.122501 40.144459,47.537022 
	C33.952469,50.922470 27.669895,49.777180 22.145187,45.085552 
	C21.310242,44.376507 19.858124,44.394222 18.691484,44.075768 
	C18.531908,44.512535 18.372330,44.949303 18.212753,45.386070 
	C19.891222,46.884933 21.569691,48.383801 22.899616,50.079086 
	C21.205055,50.831970 19.903254,51.691246 18.505774,51.895321 
	C10.006277,53.136494 9.998984,53.086708 9.999295,61.546497 
	C9.999338,62.697666 9.999755,63.848831 10.000000,65.000000 
z"/>
<path fill="#01BA01" opacity="1.000000" stroke="none" 
	d="
M10.468657,65.000000 
	C9.999755,63.848831 9.999338,62.697666 9.999295,61.546497 
	C9.998984,53.086708 10.006277,53.136494 18.505774,51.895321 
	C19.903254,51.691246 21.205055,50.831970 23.253113,50.157356 
	C29.833855,53.006939 35.779400,52.880695 41.844238,50.833870 
	C43.037033,55.409500 46.565327,54.997196 49.570694,54.925865 
	C53.679642,54.828335 55.347054,56.542679 55.017380,60.544144 
	C54.895798,62.019890 54.999210,63.514172 55.000000,65.000000 
	C40.312439,65.000000 25.624876,65.000000 10.468657,65.000000 
z"/>
<path fill="#01BF01" opacity="1.000000" stroke="none" 
	d="
M55.486565,65.000000 
	C54.999210,63.514172 54.895798,62.019890 55.017380,60.544144 
	C55.347054,56.542679 53.679642,54.828335 49.570694,54.925865 
	C46.565327,54.997196 43.037033,55.409500 41.984322,50.683186 
	C42.296825,49.965595 42.560120,49.907234 43.053963,49.848598 
	C43.532024,49.594673 43.771454,49.402504 44.208061,48.918907 
	C46.524353,46.261051 48.613453,43.857239 50.921005,41.801769 
	C55.759636,43.766743 60.379818,45.383369 65.000000,47.000000 
	C65.000000,52.896770 65.000000,58.793545 65.000000,65.000000 
	C61.997814,65.000000 58.985474,65.000000 55.486565,65.000000 
z"/>
<path fill="#56D91C" opacity="1.000000" stroke="none" 
	d="
M15.000000,1.000000 
	C16.066786,1.000000 17.133574,1.000000 18.601070,1.416724 
	C18.636972,5.773873 20.584019,7.135213 24.344074,7.036262 
	C30.319080,6.879020 36.303020,7.073068 42.279137,6.938660 
	C43.954369,6.900983 45.615417,6.233028 47.317516,5.846338 
	C46.765011,3.814013 46.382507,2.407007 46.000000,1.000000 
	C48.700630,1.000000 51.401260,1.000000 54.545700,1.449036 
	C55.036781,4.588405 55.084061,7.278738 54.710278,10.053612 
	C50.492500,10.426805 46.668667,10.531649 42.911167,11.086060 
	C41.179893,11.341506 39.578434,12.476778 37.485710,13.153473 
	C34.730145,13.114373 32.406979,13.134912 29.814152,12.867762 
	C27.222124,12.054761 24.923201,11.345631 22.572081,11.045817 
	C18.733547,10.556332 14.860985,10.333707 11.162940,9.684004 
	C13.447567,6.974553 16.004482,4.769573 15.000000,1.000000 
z"/>
<path fill="#5EDB23" opacity="1.000000" stroke="none" 
	d="
M45.531345,1.000000 
	C46.382507,2.407007 46.765011,3.814013 47.317516,5.846338 
	C45.615417,6.233028 43.954369,6.900983 42.279137,6.938660 
	C36.303020,7.073068 30.319080,6.879020 24.344074,7.036262 
	C20.584019,7.135213 18.636972,5.773873 19.000893,1.416724 
	C27.687563,1.000000 36.375126,1.000000 45.531345,1.000000 
z"/>
<path fill="#05C503" opacity="1.000000" stroke="none" 
	d="
M65.000000,46.539364 
	C60.379818,45.383369 55.759636,43.766743 50.981346,41.441574 
	C51.154564,35.782291 51.485886,30.831547 52.053047,26.028728 
	C52.551823,26.435726 52.814751,26.694798 53.116322,27.317429 
	C53.447819,29.106049 53.740673,30.531111 54.070930,32.351521 
	C55.328651,33.493332 56.481167,34.692230 57.784084,34.887478 
	C60.142056,35.240833 62.589760,34.995422 65.000000,35.000000 
	C65.000000,38.692909 65.000000,42.385818 65.000000,46.539364 
z"/>
<path fill="#46D512" opacity="1.000000" stroke="none" 
	d="
M14.050797,43.920273 
	C13.662962,40.273525 13.183253,36.633549 12.914000,32.978065 
	C12.661704,29.552816 12.632215,26.111156 11.831322,22.334206 
	C7.771978,21.327797 4.385989,20.663897 1.000000,20.000000 
	C1.000000,17.629442 1.000000,15.258885 1.333575,12.608999 
	C3.121223,12.555950 4.575297,12.782230 6.265299,13.290672 
	C8.270056,14.380912 9.968262,15.484893 11.824232,15.927852 
	C14.622129,16.595619 17.530241,16.801598 20.378099,17.527250 
	C19.685040,18.611656 19.005384,19.372673 18.089233,20.222113 
	C16.886866,20.911772 15.920995,21.513010 14.611025,22.207863 
	C14.166269,23.201937 14.065614,24.102394 13.871232,25.461498 
	C13.858137,30.947603 13.938767,35.975060 13.944941,41.364391 
	C13.930588,42.457603 13.990692,43.188938 14.050797,43.920273 
z"/>
<path fill="#00FF15" opacity="1.000000" stroke="none" 
	d="
M55.131340,9.969072 
	C55.084061,7.278738 55.036781,4.588405 54.994751,1.449036 
	C58.257576,1.000000 61.515152,1.000000 65.000000,1.000000 
	C65.000000,4.342758 65.000000,7.688423 64.652725,11.672812 
	C62.551670,12.510200 60.797894,12.708862 58.851341,12.667633 
	C57.482826,11.608184 56.307083,10.788629 55.131340,9.969072 
z"/>
<path fill="#37D003" opacity="1.000000" stroke="none" 
	d="
M53.077682,26.953869 
	C52.814751,26.694798 52.551823,26.435726 51.934906,25.729595 
	C50.407642,23.522108 49.234367,21.761675 48.462891,19.919727 
	C52.913162,19.558239 56.961636,19.278263 61.288372,19.162661 
	C62.711086,19.884687 63.855545,20.442345 65.000000,21.000000 
	C65.000000,22.066669 65.000000,23.133339 64.707092,24.845638 
	C60.635345,25.978800 56.856514,26.466335 53.077682,26.953869 
z"/>
<path fill="#00FF15" opacity="1.000000" stroke="none" 
	d="
M6.029372,13.008510 
	C4.575297,12.782230 3.121223,12.555950 1.333575,12.164835 
	C1.000000,8.423984 1.000000,4.847968 1.000000,1.000000 
	C3.669412,1.000000 6.343658,1.000000 9.518469,1.450036 
	C10.066189,4.598847 10.113343,7.297623 9.936035,10.235286 
	C8.484173,11.318952 7.256773,12.163731 6.029372,13.008510 
z"/>
<path fill="#2FCF00" opacity="1.000000" stroke="none" 
	d="
M1.000000,20.444162 
	C4.385989,20.663897 7.771978,21.327797 11.593863,21.997692 
	C12.005541,24.033676 11.981322,26.063662 11.507397,28.538223 
	C7.705127,28.655199 4.352564,28.327599 1.000000,28.000000 
	C1.000000,25.629442 1.000000,23.258884 1.000000,20.444162 
z"/>
<path fill="#25CC00" opacity="1.000000" stroke="none" 
	d="
M53.116322,27.317429 
	C56.856514,26.466335 60.635345,25.978800 64.707092,25.245632 
	C65.000000,27.041666 65.000000,29.083334 64.542206,31.560898 
	C60.734119,31.983255 57.383823,31.969713 54.033531,31.956171 
	C53.740673,30.531111 53.447819,29.106049 53.116322,27.317429 
z"/>
<path fill="#44DB00" opacity="1.000000" stroke="none" 
	d="
M65.000000,20.550020 
	C63.855545,20.442345 62.711086,19.884687 61.230415,18.853670 
	C60.267612,17.587366 59.641029,16.794424 59.011383,15.615261 
	C59.020245,14.455202 59.032177,13.681364 59.044113,12.907526 
	C60.797894,12.708862 62.551670,12.510200 64.652725,12.155768 
	C65.000000,14.700013 65.000000,17.400026 65.000000,20.550020 
z"/>
<path fill="#53DA0E" opacity="1.000000" stroke="none" 
	d="
M10.160498,9.996399 
	C10.113343,7.297623 10.066189,4.598847 10.009518,1.450036 
	C11.388889,1.000000 12.777778,1.000000 14.583334,1.000000 
	C16.004482,4.769573 13.447567,6.974553 10.952353,9.683633 
	C10.581603,9.997749 10.160498,9.996399 10.160498,9.996399 
z"/>
<path fill="#1ECB00" opacity="1.000000" stroke="none" 
	d="
M1.000000,28.399994 
	C4.352564,28.327599 7.705127,28.655199 11.496920,28.972946 
	C11.952533,29.717314 11.968915,30.471535 11.527281,31.609318 
	C7.712842,31.995255 4.356421,31.997627 1.000000,32.000000 
	C1.000000,30.933331 1.000000,29.866661 1.000000,28.399994 
z"/>
<path fill="#0EC900" opacity="1.000000" stroke="none" 
	d="
M1.000000,32.375000 
	C4.356421,31.997627 7.712842,31.995255 11.525229,31.986029 
	C10.611050,32.983490 9.368446,34.452728 7.837970,34.872581 
	C5.990056,35.379509 3.898087,34.996780 1.455875,34.999557 
	C1.000000,34.250000 1.000000,33.500000 1.000000,32.375000 
z"/>
<path fill="#0EC900" opacity="1.000000" stroke="none" 
	d="
M54.070934,32.351521 
	C57.383823,31.969713 60.734119,31.983255 64.542206,31.998398 
	C65.000000,32.750000 65.000000,33.500000 65.000000,34.625000 
	C62.589760,34.995422 60.142056,35.240833 57.784084,34.887478 
	C56.481167,34.692230 55.328651,33.493332 54.070934,32.351521 
z"/>
<path fill="#E1F6DA" opacity="1.000000" stroke="none" 
	d="
M48.061092,20.001242 
	C49.234367,21.761675 50.407642,23.522108 51.699059,25.581671 
	C51.485886,30.831547 51.154564,35.782291 50.762897,41.093231 
	C48.613453,43.857239 46.524353,46.261051 43.957260,48.936680 
	C43.267960,49.454910 43.056648,49.701328 42.845333,49.947742 
	C42.560120,49.907234 42.296825,49.965595 41.915367,50.273506 
	C35.779400,52.880695 29.833855,53.006939 23.601654,49.960938 
	C21.569691,48.383801 19.891222,46.884933 18.212753,45.386070 
	C18.372330,44.949303 18.531908,44.512535 18.691484,44.075768 
	C19.858124,44.394222 21.310242,44.376507 22.145187,45.085552 
	C27.669895,49.777180 33.952469,50.922470 40.144459,47.537022 
	C46.389629,44.122501 50.076344,38.548691 49.034241,30.086304 
	C47.686291,27.030819 46.425354,24.758423 44.903381,22.282967 
	C42.085075,20.439297 39.685528,17.797094 36.938026,17.364420 
	C31.029993,16.434027 25.082350,17.064425 20.592560,22.441944 
	C19.610514,21.665655 18.968122,20.899673 18.325731,20.133692 
	C19.005384,19.372673 19.685040,18.611656 20.725082,17.454556 
	C24.084921,15.757467 27.084368,14.456459 30.083815,13.155451 
	C32.406979,13.134912 34.730145,13.114373 37.602928,13.478934 
	C41.073944,15.302334 43.995338,16.740635 46.999870,18.439081 
	C47.409035,19.133234 47.735062,19.567238 48.061092,20.001242 
z"/>
<path fill="#E5F7DF" opacity="1.000000" stroke="none" 
	d="
M14.019399,41.002514 
	C13.938767,35.975060 13.858137,30.947603 14.171801,25.403891 
	C15.062894,24.549585 15.559691,24.211536 16.420345,23.916832 
	C21.202799,26.231695 25.621401,28.503214 30.040001,30.774734 
	C30.920511,31.436350 31.801022,32.097965 33.059204,33.043362 
	C28.397129,35.755211 24.032024,38.294315 19.067726,40.715370 
	C16.985485,40.732388 15.502442,40.867451 14.019399,41.002514 
z"/>
<path fill="#E3F6DB" opacity="1.000000" stroke="none" 
	d="
M45.069389,34.006954 
	C41.192471,45.258877 33.240471,48.146179 23.835667,40.432331 
	C25.971844,40.432331 27.307981,40.024303 28.130323,40.501568 
	C32.109760,42.811119 35.838154,42.612686 39.084305,39.448353 
	C42.310539,36.303440 42.736340,32.520340 40.137848,27.903952 
	C35.909580,24.840122 31.995878,23.578972 27.494606,26.503906 
	C26.340723,25.663540 25.513504,24.869053 24.891092,23.739933 
	C31.623886,20.408262 37.815792,19.602083 42.996922,26.480150 
	C43.764317,29.220036 44.416851,31.613495 45.069389,34.006954 
z"/>
<path fill="#26CC02" opacity="1.000000" stroke="none" 
	d="
M27.821268,26.549786 
	C31.995878,23.578972 35.909580,24.840122 39.860340,27.657471 
	C38.731068,32.927467 38.272923,33.035439 30.267645,29.836897 
	C29.081331,28.508961 28.451300,27.529373 27.821268,26.549786 
z"/>
<path fill="#1FCC13" opacity="1.000000" stroke="none" 
	d="
M27.494606,26.503906 
	C28.451300,27.529373 29.081331,28.508961 29.901543,29.785908 
	C30.091722,30.083267 30.078545,30.429913 30.059273,30.602324 
	C25.621401,28.503214 21.202799,26.231695 16.348755,23.662416 
	C15.593917,22.947855 15.274521,22.531052 14.955125,22.114246 
	C15.920995,21.513010 16.886866,20.911772 18.089233,20.222113 
	C18.968122,20.899673 19.610514,21.665655 20.636280,22.722256 
	C22.241865,23.366774 23.464075,23.720671 24.686285,24.074566 
	C25.513504,24.869053 26.340723,25.663540 27.494606,26.503906 
z"/>
<path fill="#12CA0A" opacity="1.000000" stroke="none" 
	d="
M45.385895,33.928108 
	C44.416851,31.613495 43.764317,29.220036 43.214382,26.345547 
	C44.388233,26.759176 45.459480,27.653837 46.649075,28.647341 
	C46.124432,26.470074 45.644424,24.478050 45.164417,22.486027 
	C46.425354,24.758423 47.686291,27.030819 48.921478,29.664772 
	C47.831284,31.300644 46.766846,32.574955 45.385895,33.928108 
z"/>
<path fill="#F0FAEC" opacity="1.000000" stroke="none" 
	d="
M13.944941,41.364391 
	C15.502442,40.867451 16.985485,40.732388 18.722458,40.773895 
	C17.547403,41.894104 16.118420,42.837738 14.370115,43.850822 
	C13.990692,43.188938 13.930588,42.457603 13.944941,41.364391 
z"/>
<path fill="#01BA01" opacity="1.000000" stroke="none" 
	d="
M43.053963,49.848598 
	C43.056648,49.701328 43.267960,49.454910 43.730072,49.190720 
	C43.771454,49.402504 43.532024,49.594673 43.053963,49.848598 
z"/>
<path fill="#4AD515" opacity="1.000000" stroke="none" 
	d="
M29.814152,12.867763 
	C27.084368,14.456459 24.084921,15.757467 20.738491,17.131168 
	C17.530241,16.801598 14.622129,16.595619 11.824232,15.927852 
	C9.968262,15.484893 8.270056,14.380912 6.265299,13.290672 
	C7.256773,12.163731 8.484173,11.318952 9.936035,10.235286 
	C10.160498,9.996399 10.581603,9.997749 10.792191,9.998120 
	C14.860985,10.333707 18.733547,10.556332 22.572081,11.045817 
	C24.923201,11.345631 27.222124,12.054761 29.814152,12.867763 
z"/>
<path fill="#4BD516" opacity="1.000000" stroke="none" 
	d="
M46.916737,18.178934 
	C43.995338,16.740635 41.073944,15.302334 38.035332,13.538572 
	C39.578434,12.476778 41.179893,11.341506 42.911167,11.086060 
	C46.668667,10.531649 50.492500,10.426805 54.710278,10.053612 
	C56.307083,10.788629 57.482826,11.608184 58.851341,12.667632 
	C59.032177,13.681364 59.020245,14.455202 58.555466,15.614262 
	C54.373993,16.725965 50.645367,17.452450 46.916737,18.178934 
z"/>
<path fill="#F0FAEC" opacity="1.000000" stroke="none" 
	d="
M14.611025,22.207865 
	C15.274521,22.531052 15.593917,22.947855 15.984901,23.619074 
	C15.559691,24.211536 15.062894,24.549585 14.265526,24.945242 
	C14.065614,24.102394 14.166269,23.201937 14.611025,22.207865 
z"/>
<path fill="#44D30B" opacity="1.000000" stroke="none" 
	d="
M46.999870,18.439081 
	C50.645367,17.452450 54.373993,16.725965 58.558537,16.000481 
	C59.641029,16.794424 60.267612,17.587366 60.952156,18.689299 
	C56.961636,19.278263 52.913162,19.558239 48.462891,19.919727 
	C47.735062,19.567238 47.409035,19.133234 46.999870,18.439081 
z"/>
<path fill="#3AD10B" opacity="1.000000" stroke="none" 
	d="
M44.903381,22.282967 
	C45.644424,24.478050 46.124432,26.470074 46.649075,28.647341 
	C45.459480,27.653837 44.388233,26.759176 43.099525,25.999119 
	C37.815792,19.602083 31.623886,20.408262 24.891092,23.739933 
	C23.464075,23.720671 22.241865,23.366774 20.975937,22.732563 
	C25.082350,17.064425 31.029993,16.434027 36.938026,17.364420 
	C39.685528,17.797094 42.085075,20.439297 44.903381,22.282967 
z"/>
</svg>