<?xml version="1.0" encoding="UTF-8"?>
<!DOCTYPE svg PUBLIC "-//W3C//DTD SVG 1.1//EN" "http://www.w3.org/Graphics/SVG/1.1/DTD/svg11.dtd">
<svg xmlns="http://www.w3.org/2000/svg" version="1.1" width="64px" height="64px" style="shape-rendering:geometricPrecision; text-rendering:geometricPrecision; image-rendering:optimizeQuality; fill-rule:evenodd; clip-rule:evenodd" xmlns:xlink="http://www.w3.org/1999/xlink">
<g><path style="opacity:0.993" fill="#50d61c" d="M 23.5,-0.5 C 28.8333,-0.5 34.1667,-0.5 39.5,-0.5C 48.9287,2.59032 55.9287,8.59032 60.5,17.5C 59.8826,17.3893 59.3826,17.056 59,16.5C 57.3023,17.733 55.3023,18.3996 53,18.5C 49.5948,18.9456 46.7615,17.9456 44.5,15.5C 43.8933,15.6236 43.56,15.9569 43.5,16.5C 38.1182,12.7075 32.1182,11.5408 25.5,13C 22.4384,14.0608 19.9384,15.8941 18,18.5C 17.4719,19.816 17.9719,20.4827 19.5,20.5C 21.1207,20.7869 22.1207,21.7869 22.5,23.5C 22.0431,24.2975 21.3764,24.6309 20.5,24.5C 17.6575,23.8277 15.1575,22.4944 13,20.5C 12.5003,27.8258 12.3337,35.1591 12.5,42.5C 11.5084,35.3524 11.175,28.0191 11.5,20.5C 8.16667,20.5 4.83333,20.5 1.5,20.5C 5.58806,10.0782 12.9214,3.07815 23.5,-0.5 Z"/></g>
<g><path style="opacity:1" fill="#2dcb13" d="M 42.5,43.5 C 40.4884,44.0138 38.4884,44.1805 36.5,44C 40.1606,42.244 42.1606,39.744 42.5,36.5C 44.6389,27.1165 40.9722,21.4499 31.5,19.5C 28.2612,19.786 25.5945,21.1194 23.5,23.5C 24,23.8333 24.5,24.1667 25,24.5C 35.1167,20.3833 40.1167,23.7167 40,34.5C 36.4291,40.6476 31.5957,41.981 25.5,38.5C 26.8333,36.5 28.1667,34.5 29.5,32.5C 30.7736,31.8106 30.7736,30.9772 29.5,30C 26.1019,28.6429 23.1019,26.8096 20.5,24.5C 21.3764,24.6309 22.0431,24.2975 22.5,23.5C 22.1207,21.7869 21.1207,20.7869 19.5,20.5C 26.6381,14.3843 34.3047,13.8843 42.5,19C 47.2452,24.2693 48.7452,30.436 47,37.5C 46.2082,40.1064 44.7082,42.1064 42.5,43.5 Z"/></g>
<g><path style="opacity:1" fill="#ecf9e6" d="M 43.5,16.5 C 47.3617,19.5499 49.695,23.5499 50.5,28.5C 50.2648,44.964 41.9314,52.1307 25.5,50C 22.0838,48.75 19.4172,46.5833 17.5,43.5C 17.8333,43.1667 18.1667,42.8333 18.5,42.5C 23.9818,47.2184 30.3151,48.7184 37.5,47C 39.5844,46.3028 41.2511,45.1361 42.5,43.5C 44.7082,42.1064 46.2082,40.1064 47,37.5C 48.7452,30.436 47.2452,24.2693 42.5,19C 34.3047,13.8843 26.6381,14.3843 19.5,20.5C 17.9719,20.4827 17.4719,19.816 18,18.5C 19.9384,15.8941 22.4384,14.0608 25.5,13C 32.1182,11.5408 38.1182,12.7075 43.5,16.5 Z"/></g>
<g><path style="opacity:1" fill="#e9f8e3" d="M 20.5,24.5 C 23.1019,26.8096 26.1019,28.6429 29.5,30C 30.7736,30.9772 30.7736,31.8106 29.5,32.5C 23.8333,35.8333 18.1667,39.1667 12.5,42.5C 12.3337,35.1591 12.5003,27.8258 13,20.5C 15.1575,22.4944 17.6575,23.8277 20.5,24.5 Z"/></g>
<g><path style="opacity:1" fill="#ebf8e5" d="M 42.5,36.5 C 37.15,44.3368 30.8167,45.3368 23.5,39.5C 23.9569,38.7025 24.6236,38.3691 25.5,38.5C 31.5957,41.981 36.4291,40.6476 40,34.5C 40.1167,23.7167 35.1167,20.3833 25,24.5C 24.5,24.1667 24,23.8333 23.5,23.5C 25.5945,21.1194 28.2612,19.786 31.5,19.5C 40.9722,21.4499 44.6389,27.1165 42.5,36.5 Z"/></g>
<g><path style="opacity:0.98" fill="#25cc01" d="M 43.5,16.5 C 43.56,15.9569 43.8933,15.6236 44.5,15.5C 46.7615,17.9456 49.5948,18.9456 53,18.5C 55.3023,18.3996 57.3023,17.733 59,16.5C 59.3826,17.056 59.8826,17.3893 60.5,17.5C 61.5,19.5 62.5,21.5 63.5,23.5C 63.5,27.5 63.5,31.5 63.5,35.5C 59.9359,34.5773 56.2693,34.244 52.5,34.5C 52.9746,31.9179 52.3079,29.9179 50.5,28.5C 49.695,23.5499 47.3617,19.5499 43.5,16.5 Z"/></g>
<g><path style="opacity:0.982" fill="#0fbf06" d="M 1.5,20.5 C 4.83333,20.5 8.16667,20.5 11.5,20.5C 11.175,28.0191 11.5084,35.3524 12.5,42.5C 18.1667,39.1667 23.8333,35.8333 29.5,32.5C 28.1667,34.5 26.8333,36.5 25.5,38.5C 24.6236,38.3691 23.9569,38.7025 23.5,39.5C 30.8167,45.3368 37.15,44.3368 42.5,36.5C 42.1606,39.744 40.1606,42.244 36.5,44C 38.4884,44.1805 40.4884,44.0138 42.5,43.5C 41.2511,45.1361 39.5844,46.3028 37.5,47C 30.3151,48.7184 23.9818,47.2184 18.5,42.5C 18.1667,42.8333 17.8333,43.1667 17.5,43.5C 19.4172,46.5833 22.0838,48.75 25.5,50C 41.9314,52.1307 50.2648,44.964 50.5,28.5C 52.3079,29.9179 52.9746,31.9179 52.5,34.5C 56.2693,34.244 59.9359,34.5773 63.5,35.5C 63.5,36.8333 63.5,38.1667 63.5,39.5C 59.1667,51.1667 51.1667,59.1667 39.5,63.5C 34.1667,63.5 28.8333,63.5 23.5,63.5C 11.8333,59.1667 3.83333,51.1667 -0.5,39.5C -0.5,34.1667 -0.5,28.8333 -0.5,23.5C 0.166667,22.5 0.833333,21.5 1.5,20.5 Z"/></g>
</svg>
