<?xml version="1.0" standalone="no"?>
<!DOCTYPE svg PUBLIC "-//W3C//DTD SVG 20010904//EN"
 "http://www.w3.org/TR/2001/REC-SVG-20010904/DTD/svg10.dtd">
<svg version="1.0" xmlns="http://www.w3.org/2000/svg"
 width="64.000000pt" height="64.000000pt" viewBox="0 0 64.000000 64.000000"
 preserveAspectRatio="xMidYMid meet">

<g transform="translate(0.000000,64.000000) scale(0.100000,-0.100000)"
fill="#000000" stroke="none">
<path d="M208 553 c-21 -9 -38 -21 -38 -27 0 -6 -16 -31 -35 -55 -31 -39 -35
-51 -35 -101 0 -37 5 -62 14 -69 11 -9 15 -8 20 4 3 9 2 13 -4 10 -13 -8 -25
24 -13 36 5 5 22 10 38 12 41 5 97 31 88 42 -5 4 0 5 10 2 19 -7 22 5 7 33 -7
13 -6 19 5 24 8 3 15 1 15 -4 0 -19 27 -10 39 14 10 18 10 29 2 45 -13 23 -2
28 18 9 10 -11 11 -10 6 5 -8 20 -2 21 27 6 15 -8 17 -13 8 -19 -9 -6 -9 -12
1 -29 8 -11 17 -21 22 -21 4 0 5 5 2 10 -3 6 -2 10 4 10 15 0 21 -14 14 -39
-5 -21 -6 -21 -25 -4 -16 15 -18 15 -13 1 4 -9 13 -19 21 -22 10 -4 13 -13 9
-26 -4 -11 -2 -20 4 -20 6 0 11 7 11 15 0 44 58 50 93 11 15 -18 14 -14 -4 23
-18 39 -23 42 -31 27 -8 -14 -12 -16 -18 -5 -5 8 -3 17 7 24 14 10 11 15 -19
38 -75 57 -171 72 -250 40z m22 -91 c0 -13 -12 -22 -22 -16 -10 6 -1 24 13 24
5 0 9 -4 9 -8z m-34 -69 c-3 -4 -6 -1 -6 6 0 7 -4 9 -10 6 -6 -4 -7 1 -3 11 6
15 7 15 15 -1 6 -9 7 -19 4 -22z"/>
<path d="M490 389 c0 -6 -7 -8 -16 -5 -9 4 -28 -3 -45 -16 -16 -13 -42 -33
-58 -46 -17 -12 -36 -38 -42 -57 -11 -30 -16 -34 -38 -28 -21 5 -24 3 -13 -8
21 -23 13 -29 -18 -11 -16 9 -30 20 -30 24 0 4 -18 11 -40 14 -26 4 -40 12
-40 21 0 8 -6 13 -13 10 -23 -9 -58 13 -72 45 l-14 33 -1 -45 c0 -77 17 -118
78 -180 49 -50 65 -60 115 -71 45 -9 69 -10 108 -1 28 7 74 12 103 12 67 0
130 40 140 90 10 50 7 83 -9 110 -8 14 -22 41 -31 60 -21 46 -64 78 -64 49z
m35 -29 c3 -6 -1 -7 -9 -4 -18 7 -21 14 -7 14 6 0 13 -4 16 -10z m-430 -90
c11 -12 13 -20 6 -20 -7 0 -9 -5 -5 -12 6 -10 4 -10 -8 0 -17 14 -31 52 -19
52 5 0 16 -9 26 -20z m60 -39 c3 -5 1 -12 -5 -16 -5 -3 -10 1 -10 9 0 18 6 21
15 7z m40 -81 c3 -5 1 -10 -4 -10 -6 0 -11 5 -11 10 0 6 2 10 4 10 3 0 8 -4
11 -10z m185 -59 c0 -12 -83 -23 -106 -14 -14 6 -6 9 31 14 28 3 56 7 63 7 6
1 12 -2 12 -7z"/>
<path d="M170 296 c0 -2 7 -7 16 -10 8 -3 12 -2 9 4 -6 10 -25 14 -25 6z"/>
</g>
</svg>
