<?xml version="1.0" encoding="UTF-8"?>
<!DOCTYPE svg PUBLIC "-//W3C//DTD SVG 1.1//EN" "http://www.w3.org/Graphics/SVG/1.1/DTD/svg11.dtd">
<svg xmlns="http://www.w3.org/2000/svg" version="1.1" width="64px" height="64px" style="shape-rendering:geometricPrecision; text-rendering:geometricPrecision; image-rendering:optimizeQuality; fill-rule:evenodd; clip-rule:evenodd" xmlns:xlink="http://www.w3.org/1999/xlink">
<g><path style="opacity:1" fill="#295aeb" d="M 30.5,6.5 C 31.8333,7.16667 33.1667,7.83333 34.5,8.5C 33.0048,8.98869 31.6715,9.65536 30.5,10.5C 28.1667,10.5 25.8333,10.5 23.5,10.5C 22.391,10.5569 21.391,10.8902 20.5,11.5C 20.7329,9.93819 21.3995,8.60486 22.5,7.5C 24.9479,6.52693 27.6146,6.1936 30.5,6.5 Z"/></g>
<g><path style="opacity:1" fill="#1c347d" d="M 30.5,6.5 C 33.6967,6.40542 36.6967,7.07209 39.5,8.5C 39.4142,9.4959 39.7476,10.3292 40.5,11C 39.9056,11.4643 39.2389,11.631 38.5,11.5C 38.5,10.8333 38.1667,10.5 37.5,10.5C 36.7095,9.59872 35.7095,8.93205 34.5,8.5C 33.1667,7.83333 31.8333,7.16667 30.5,6.5 Z"/></g>
<g><path style="opacity:1" fill="#4e99eb" d="M 34.5,8.5 C 35.7095,8.93205 36.7095,9.59872 37.5,10.5C 36.2502,10.5774 35.4169,11.244 35,12.5C 33.5391,11.1175 32.7058,11.4508 32.5,13.5C 32.1667,13.5 31.8333,13.5 31.5,13.5C 31.6716,12.5084 31.3382,11.8417 30.5,11.5C 30.5,11.1667 30.5,10.8333 30.5,10.5C 31.6715,9.65536 33.0048,8.98869 34.5,8.5 Z"/></g>
<g><path style="opacity:1" fill="#142b82" d="M 22.5,7.5 C 21.3995,8.60486 20.7329,9.93819 20.5,11.5C 16.8917,12.9121 16.5583,14.9121 19.5,17.5C 19.5,17.8333 19.5,18.1667 19.5,18.5C 17.3862,17.216 16.3862,15.216 16.5,12.5C 16.5569,11.391 16.8902,10.391 17.5,9.5C 19.0495,8.5592 20.7162,7.89254 22.5,7.5 Z"/></g>
<g><path style="opacity:1" fill="#345a7d" d="M 41.5,9.5 C 43.2303,10.0256 44.5637,11.0256 45.5,12.5C 44.6715,13.3324 43.8382,12.999 43,11.5C 42.7679,12.7375 42.2679,13.7375 41.5,14.5C 40.8333,14.5 40.5,14.1667 40.5,13.5C 41.4345,12.4324 41.7678,11.099 41.5,9.5 Z"/></g>
<g><path style="opacity:1" fill="#020868" d="M 30.5,11.5 C 31.3382,11.8417 31.6716,12.5084 31.5,13.5C 30.791,14.404 29.791,14.7373 28.5,14.5C 27.9423,13.2101 26.9423,12.3768 25.5,12C 27.1341,11.5065 28.8008,11.3398 30.5,11.5 Z"/></g>
<g><path style="opacity:1" fill="#2f5786" d="M 39.5,8.5 C 40.4916,8.32842 41.1583,8.66175 41.5,9.5C 41.7678,11.099 41.4345,12.4324 40.5,13.5C 39.9595,14.561 39.6262,15.561 39.5,16.5C 38.7281,15.3065 37.7281,14.3065 36.5,13.5C 36.5,12.1667 37.1667,11.5 38.5,11.5C 39.2389,11.631 39.9056,11.4643 40.5,11C 39.7476,10.3292 39.4142,9.4959 39.5,8.5 Z"/></g>
<g><path style="opacity:1" fill="#0d22b3" d="M 23.5,10.5 C 25.8333,10.5 28.1667,10.5 30.5,10.5C 30.5,10.8333 30.5,11.1667 30.5,11.5C 28.8008,11.3398 27.1341,11.5065 25.5,12C 26.9423,12.3768 27.9423,13.2101 28.5,14.5C 28.5,15.1667 28.5,15.8333 28.5,16.5C 27.5,16.5 26.5,16.5 25.5,16.5C 24.8333,16.1667 24.1667,15.8333 23.5,15.5C 22.438,13.9008 22.438,12.2341 23.5,10.5 Z"/></g>
<g><path style="opacity:1" fill="#72c5fa" d="M 37.5,10.5 C 38.1667,10.5 38.5,10.8333 38.5,11.5C 37.1667,11.5 36.5,12.1667 36.5,13.5C 36.573,15.0269 35.9063,16.0269 34.5,16.5C 34.1667,15.5 33.5,14.8333 32.5,14.5C 32.5,14.1667 32.5,13.8333 32.5,13.5C 32.7058,11.4508 33.5391,11.1175 35,12.5C 35.4169,11.244 36.2502,10.5774 37.5,10.5 Z"/></g>
<g><path style="opacity:1" fill="#90e3f0" d="M 17.5,9.5 C 16.8902,10.391 16.5569,11.391 16.5,12.5C 15.8333,12.5 15.5,12.8333 15.5,13.5C 14.2719,14.3065 13.2719,15.3065 12.5,16.5C 11.8333,15.8333 11.1667,15.1667 10.5,14.5C 12.5732,12.4202 14.9066,10.7536 17.5,9.5 Z"/></g>
<g><path style="opacity:1" fill="#0d1e87" d="M 23.5,10.5 C 22.438,12.2341 22.438,13.9008 23.5,15.5C 21.6203,15.2291 20.287,15.8958 19.5,17.5C 16.5583,14.9121 16.8917,12.9121 20.5,11.5C 21.391,10.8902 22.391,10.5569 23.5,10.5 Z"/></g>
<g><path style="opacity:1" fill="#41697f" d="M 45.5,12.5 C 46.8333,13.1667 47.8333,14.1667 48.5,15.5C 46.4899,16.915 44.6566,18.5817 43,20.5C 42.6174,19.944 42.1174,19.6107 41.5,19.5C 42.562,17.7659 42.562,16.0992 41.5,14.5C 42.2679,13.7375 42.7679,12.7375 43,11.5C 43.8382,12.999 44.6715,13.3324 45.5,12.5 Z"/></g>
<g><path style="opacity:1" fill="#224b7e" d="M 16.5,12.5 C 16.3862,15.216 17.3862,17.216 19.5,18.5C 19.6716,19.4916 19.3382,20.1583 18.5,20.5C 16.1663,18.8243 15.1663,16.491 15.5,13.5C 15.5,12.8333 15.8333,12.5 16.5,12.5 Z"/></g>
<g><path style="opacity:1" fill="#102679" d="M 31.5,13.5 C 31.8333,13.5 32.1667,13.5 32.5,13.5C 32.5,13.8333 32.5,14.1667 32.5,14.5C 31.3995,15.6049 30.7329,16.9382 30.5,18.5C 29.1667,18.5 28.5,17.8333 28.5,16.5C 28.5,15.8333 28.5,15.1667 28.5,14.5C 29.791,14.7373 30.791,14.404 31.5,13.5 Z"/></g>
<g><path style="opacity:1" fill="#d3e1d2" d="M 10.5,14.5 C 11.1667,15.1667 11.8333,15.8333 12.5,16.5C 11.8333,17.5 11.1667,18.5 10.5,19.5C 9.52693,21.9479 9.1936,24.6146 9.5,27.5C 8.53094,25.337 7.69761,23.0037 7,20.5C 6.72158,21.4158 6.22158,22.0825 5.5,22.5C 6.15135,19.197 7.81802,16.5303 10.5,14.5 Z"/></g>
<g><path style="opacity:1" fill="#67a5b9" d="M 40.5,13.5 C 40.5,14.1667 40.8333,14.5 41.5,14.5C 42.562,16.0992 42.562,17.7659 41.5,19.5C 40.5084,19.6716 39.8417,19.3382 39.5,18.5C 40.5063,18.0623 40.5063,17.3957 39.5,16.5C 39.6262,15.561 39.9595,14.561 40.5,13.5 Z"/></g>
<g><path style="opacity:1" fill="#408ff1" d="M 25.5,16.5 C 26.5,16.5 27.5,16.5 28.5,16.5C 28.5,17.8333 29.1667,18.5 30.5,18.5C 30.5,18.8333 30.5,19.1667 30.5,19.5C 28.901,19.2322 27.5676,19.5655 26.5,20.5C 24.8906,19.3346 24.5573,18.0012 25.5,16.5 Z"/></g>
<g><path style="opacity:1" fill="#5faee9" d="M 32.5,14.5 C 33.5,14.8333 34.1667,15.5 34.5,16.5C 34.5,17.1667 34.1667,17.5 33.5,17.5C 32.7777,18.5511 31.7777,19.2178 30.5,19.5C 30.5,19.1667 30.5,18.8333 30.5,18.5C 30.7329,16.9382 31.3995,15.6049 32.5,14.5 Z"/></g>
<g><path style="opacity:1" fill="#84d7fa" d="M 36.5,13.5 C 37.7281,14.3065 38.7281,15.3065 39.5,16.5C 40.5063,17.3957 40.5063,18.0623 39.5,18.5C 38.8333,18.1667 38.1667,17.8333 37.5,17.5C 36.1667,18.5 34.8333,19.5 33.5,20.5C 34.8333,19.5 34.8333,18.5 33.5,17.5C 34.1667,17.5 34.5,17.1667 34.5,16.5C 35.9063,16.0269 36.573,15.0269 36.5,13.5 Z"/></g>
<g><path style="opacity:1" fill="#3a637f" d="M 15.5,13.5 C 15.1663,16.491 16.1663,18.8243 18.5,20.5C 18.5,20.8333 18.5,21.1667 18.5,21.5C 17.1667,21.5 15.8333,21.5 14.5,21.5C 13.6868,20.3473 12.6868,20.3473 11.5,21.5C 10.7025,21.0431 10.3691,20.3764 10.5,19.5C 11.1667,18.5 11.8333,17.5 12.5,16.5C 13.2719,15.3065 14.2719,14.3065 15.5,13.5 Z"/></g>
<g><path style="opacity:1" fill="#2b5ea9" d="M 23.5,15.5 C 24.1667,15.8333 24.8333,16.1667 25.5,16.5C 24.5573,18.0012 24.8906,19.3346 26.5,20.5C 26.5,20.8333 26.5,21.1667 26.5,21.5C 24.2239,21.2435 23.0572,19.9102 23,17.5C 22.0471,19.3731 20.8804,19.7065 19.5,18.5C 19.5,18.1667 19.5,17.8333 19.5,17.5C 20.287,15.8958 21.6203,15.2291 23.5,15.5 Z"/></g>
<g><path style="opacity:1" fill="#7ccef6" d="M 33.5,17.5 C 34.8333,18.5 34.8333,19.5 33.5,20.5C 31.081,21.3641 29.081,22.6974 27.5,24.5C 26.5,24.5 25.5,24.5 24.5,24.5C 24.5,23.8333 24.1667,23.5 23.5,23.5C 24.1894,22.2264 25.0228,22.2264 26,23.5C 26.4643,22.9056 26.631,22.2389 26.5,21.5C 26.5,21.1667 26.5,20.8333 26.5,20.5C 27.5676,19.5655 28.901,19.2322 30.5,19.5C 31.7777,19.2178 32.7777,18.5511 33.5,17.5 Z"/></g>
<g><path style="opacity:1" fill="#517783" d="M 48.5,15.5 C 50.2503,16.6594 51.2503,18.326 51.5,20.5C 51.6716,21.4916 51.3382,22.1583 50.5,22.5C 50.5,22.1667 50.5,21.8333 50.5,21.5C 48.7428,21.0068 46.9095,20.6735 45,20.5C 43.4756,22.2714 41.9756,23.9381 40.5,25.5C 40.5,25.1667 40.5,24.8333 40.5,24.5C 40.8039,23.8501 41.1373,23.1835 41.5,22.5C 39.9208,21.3331 38.5875,19.9998 37.5,18.5C 37.5,18.1667 37.5,17.8333 37.5,17.5C 38.1667,17.8333 38.8333,18.1667 39.5,18.5C 39.8417,19.3382 40.5084,19.6716 41.5,19.5C 42.1174,19.6107 42.6174,19.944 43,20.5C 44.6566,18.5817 46.4899,16.915 48.5,15.5 Z"/></g>
<g><path style="opacity:1" fill="#2b537f" d="M 26.5,21.5 C 26.631,22.2389 26.4643,22.9056 26,23.5C 25.0228,22.2264 24.1894,22.2264 23.5,23.5C 21.597,23.2041 19.9303,22.5375 18.5,21.5C 18.5,21.1667 18.5,20.8333 18.5,20.5C 19.3382,20.1583 19.6716,19.4916 19.5,18.5C 20.8804,19.7065 22.0471,19.3731 23,17.5C 23.0572,19.9102 24.2239,21.2435 26.5,21.5 Z"/></g>
<g><path style="opacity:1" fill="#8de1fe" d="M 37.5,17.5 C 37.5,17.8333 37.5,18.1667 37.5,18.5C 36.7671,20.2944 35.7671,21.9611 34.5,23.5C 31.9208,23.0833 29.7542,23.75 28,25.5C 27.6012,25.2716 27.4346,24.9382 27.5,24.5C 29.081,22.6974 31.081,21.3641 33.5,20.5C 34.8333,19.5 36.1667,18.5 37.5,17.5 Z"/></g>
<g><path style="opacity:1" fill="#517080" d="M 10.5,19.5 C 10.3691,20.3764 10.7025,21.0431 11.5,21.5C 12.6868,20.3473 13.6868,20.3473 14.5,21.5C 13.2639,22.579 11.9306,23.579 10.5,24.5C 10.2627,25.791 10.596,26.791 11.5,27.5C 11.4431,28.609 11.1098,29.609 10.5,30.5C 10.1667,30.5 9.83333,30.5 9.5,30.5C 9.5,29.5 9.5,28.5 9.5,27.5C 9.1936,24.6146 9.52693,21.9479 10.5,19.5 Z"/></g>
<g><path style="opacity:1" fill="#a4ecf6" d="M 37.5,18.5 C 38.5875,19.9998 39.9208,21.3331 41.5,22.5C 41.1373,23.1835 40.8039,23.8501 40.5,24.5C 39.8333,24.5 39.5,24.1667 39.5,23.5C 38.0646,22.9035 36.398,22.9035 34.5,23.5C 35.7671,21.9611 36.7671,20.2944 37.5,18.5 Z"/></g>
<g><path style="opacity:1" fill="#73787d" d="M 51.5,20.5 C 52.6737,21.5137 53.3404,22.847 53.5,24.5C 52.8826,24.3893 52.3826,24.056 52,23.5C 51.5065,25.1341 51.3398,26.8008 51.5,28.5C 50.8333,28.5 50.1667,28.5 49.5,28.5C 49.5,28.1667 49.5,27.8333 49.5,27.5C 50.8333,26.1667 50.8333,24.8333 49.5,23.5C 49.5,22.8333 49.8333,22.5 50.5,22.5C 51.3382,22.1583 51.6716,21.4916 51.5,20.5 Z"/></g>
<g><path style="opacity:1" fill="#eee016" d="M 9.5,27.5 C 9.5,28.5 9.5,29.5 9.5,30.5C 8.53261,29.1938 7.19928,28.5271 5.5,28.5C 5.5,27.1667 5.5,25.8333 5.5,24.5C 5.5,23.8333 5.5,23.1667 5.5,22.5C 6.22158,22.0825 6.72158,21.4158 7,20.5C 7.69761,23.0037 8.53094,25.337 9.5,27.5 Z"/></g>
<g><path style="opacity:1" fill="#8db4b7" d="M 50.5,21.5 C 48.1099,21.9126 45.7765,22.5793 43.5,23.5C 43.6236,24.1067 43.9569,24.44 44.5,24.5C 43.8333,25.5 43.1667,26.5 42.5,27.5C 42.1667,27.5 41.8333,27.5 41.5,27.5C 41.1667,26.8333 40.8333,26.1667 40.5,25.5C 41.9756,23.9381 43.4756,22.2714 45,20.5C 46.9095,20.6735 48.7428,21.0068 50.5,21.5 Z"/></g>
<g><path style="opacity:1" fill="#d1e9ea" d="M 50.5,21.5 C 50.5,21.8333 50.5,22.1667 50.5,22.5C 49.8333,22.5 49.5,22.8333 49.5,23.5C 47.9582,24.3007 46.2915,24.634 44.5,24.5C 43.9569,24.44 43.6236,24.1067 43.5,23.5C 45.7765,22.5793 48.1099,21.9126 50.5,21.5 Z"/></g>
<g><path style="opacity:1" fill="#4b7685" d="M 18.5,21.5 C 19.9303,22.5375 21.597,23.2041 23.5,23.5C 24.1667,23.5 24.5,23.8333 24.5,24.5C 23.5,24.5 22.5,24.5 21.5,24.5C 17.9292,23.9126 14.2625,23.9126 10.5,24.5C 11.9306,23.579 13.2639,22.579 14.5,21.5C 15.8333,21.5 17.1667,21.5 18.5,21.5 Z"/></g>
<g><path style="opacity:1" fill="#5c7880" d="M 21.5,24.5 C 21.5,24.8333 21.5,25.1667 21.5,25.5C 20.5084,25.3284 19.8417,25.6618 19.5,26.5C 18.8333,27.1667 18.1667,27.8333 17.5,28.5C 16.8333,28.5 16.5,28.8333 16.5,29.5C 14.9505,28.5592 13.2838,27.8925 11.5,27.5C 10.596,26.791 10.2627,25.791 10.5,24.5C 14.2625,23.9126 17.9292,23.9126 21.5,24.5 Z"/></g>
<g><path style="opacity:1" fill="#a7f2fd" d="M 34.5,23.5 C 33.0998,24.1001 32.0998,25.1001 31.5,26.5C 28.1194,26.5405 24.7861,26.2071 21.5,25.5C 21.5,25.1667 21.5,24.8333 21.5,24.5C 22.5,24.5 23.5,24.5 24.5,24.5C 25.5,24.5 26.5,24.5 27.5,24.5C 27.4346,24.9382 27.6012,25.2716 28,25.5C 29.7542,23.75 31.9208,23.0833 34.5,23.5 Z"/></g>
<g><path style="opacity:1" fill="#c3fcff" d="M 39.5,23.5 C 37.4613,25.0502 35.128,26.0502 32.5,26.5C 32.1667,26.5 31.8333,26.5 31.5,26.5C 32.0998,25.1001 33.0998,24.1001 34.5,23.5C 36.398,22.9035 38.0646,22.9035 39.5,23.5 Z"/></g>
<g><path style="opacity:1" fill="#ddf7fe" d="M 39.5,23.5 C 39.5,24.1667 39.8333,24.5 40.5,24.5C 40.5,24.8333 40.5,25.1667 40.5,25.5C 38.1799,27.2261 35.5133,27.8928 32.5,27.5C 32.5,27.1667 32.5,26.8333 32.5,26.5C 35.128,26.0502 37.4613,25.0502 39.5,23.5 Z"/></g>
<g><path style="opacity:1" fill="#5e797d" d="M 49.5,23.5 C 50.8333,24.8333 50.8333,26.1667 49.5,27.5C 47.1667,27.5 44.8333,27.5 42.5,27.5C 43.1667,26.5 43.8333,25.5 44.5,24.5C 46.2915,24.634 47.9582,24.3007 49.5,23.5 Z"/></g>
<g><path style="opacity:1" fill="#d0f9fd" d="M 19.5,26.5 C 19.8417,25.6618 20.5084,25.3284 21.5,25.5C 24.7861,26.2071 28.1194,26.5405 31.5,26.5C 31.8333,26.5 32.1667,26.5 32.5,26.5C 32.5,26.8333 32.5,27.1667 32.5,27.5C 31.8333,27.5 31.1667,27.5 30.5,27.5C 26.8019,27.4476 23.1352,27.1143 19.5,26.5 Z"/></g>
<g><path style="opacity:1" fill="#f8f9ef" d="M 40.5,25.5 C 40.8333,26.1667 41.1667,26.8333 41.5,27.5C 40.5,28.1667 39.5,28.8333 38.5,29.5C 38.1667,29.5 37.8333,29.5 37.5,29.5C 33.8333,29.5 30.1667,29.5 26.5,29.5C 24.5853,29.7845 22.9187,29.4511 21.5,28.5C 24.7131,28.81 27.7131,28.4767 30.5,27.5C 31.1667,27.5 31.8333,27.5 32.5,27.5C 35.5133,27.8928 38.1799,27.2261 40.5,25.5 Z"/></g>
<g><path style="opacity:1" fill="#85783f" d="M 53.5,24.5 C 54.4511,25.9187 54.7845,27.5853 54.5,29.5C 53.209,29.7373 52.209,29.404 51.5,28.5C 51.3398,26.8008 51.5065,25.1341 52,23.5C 52.3826,24.056 52.8826,24.3893 53.5,24.5 Z"/></g>
<g><path style="opacity:1" fill="#f8fcfb" d="M 19.5,26.5 C 23.1352,27.1143 26.8019,27.4476 30.5,27.5C 27.7131,28.4767 24.7131,28.81 21.5,28.5C 20.1667,28.5 18.8333,28.5 17.5,28.5C 18.1667,27.8333 18.8333,27.1667 19.5,26.5 Z"/></g>
<g><path style="opacity:1" fill="#3e3939" d="M 41.5,27.5 C 41.8333,27.5 42.1667,27.5 42.5,27.5C 44.8333,27.5 47.1667,27.5 49.5,27.5C 49.5,27.8333 49.5,28.1667 49.5,28.5C 49.5,28.8333 49.5,29.1667 49.5,29.5C 46.5,29.5 43.5,29.5 40.5,29.5C 39.8333,29.5 39.1667,29.5 38.5,29.5C 39.5,28.8333 40.5,28.1667 41.5,27.5 Z"/></g>
<g><path style="opacity:1" fill="#403b3c" d="M 49.5,29.5 C 49.5,29.1667 49.5,28.8333 49.5,28.5C 50.1667,28.5 50.8333,28.5 51.5,28.5C 52.209,29.404 53.209,29.7373 54.5,29.5C 56.6037,31.3718 57.937,33.7052 58.5,36.5C 58.1667,36.5 57.8333,36.5 57.5,36.5C 56.194,34.5273 54.5273,32.8606 52.5,31.5C 51.7095,30.5987 50.7095,29.9321 49.5,29.5 Z"/></g>
<g><path style="opacity:1" fill="#fafa64" d="M 16.5,29.5 C 16.5,28.8333 16.8333,28.5 17.5,28.5C 18.8333,28.5 20.1667,28.5 21.5,28.5C 22.9187,29.4511 24.5853,29.7845 26.5,29.5C 26.5,29.8333 26.5,30.1667 26.5,30.5C 23.4552,30.4921 20.4552,30.1587 17.5,29.5C 17.1667,29.5 16.8333,29.5 16.5,29.5 Z"/></g>
<g><path style="opacity:1" fill="#f5f57c" d="M 26.5,30.5 C 26.5,30.1667 26.5,29.8333 26.5,29.5C 30.1667,29.5 33.8333,29.5 37.5,29.5C 37.1667,30.5 36.5,31.1667 35.5,31.5C 34.0813,30.5489 32.4147,30.2155 30.5,30.5C 29.1667,30.5 27.8333,30.5 26.5,30.5 Z"/></g>
<g><path style="opacity:1" fill="#e9dc2a" d="M 11.5,27.5 C 13.2838,27.8925 14.9505,28.5592 16.5,29.5C 16.8333,29.5 17.1667,29.5 17.5,29.5C 17.4431,30.609 17.1098,31.609 16.5,32.5C 15.1667,32.5 14.5,33.1667 14.5,34.5C 13.7321,33.7375 13.2321,32.7375 13,31.5C 11.841,32.566 11.0076,32.2327 10.5,30.5C 11.1098,29.609 11.4431,28.609 11.5,27.5 Z"/></g>
<g><path style="opacity:1" fill="#faf504" d="M 17.5,29.5 C 20.4552,30.1587 23.4552,30.4921 26.5,30.5C 27.8333,30.5 29.1667,30.5 30.5,30.5C 30.8333,31.1667 31.1667,31.8333 31.5,32.5C 29.5,32.5 27.5,32.5 25.5,32.5C 22.8333,32.5 20.1667,32.5 17.5,32.5C 17.1667,32.5 16.8333,32.5 16.5,32.5C 17.1098,31.609 17.4431,30.609 17.5,29.5 Z"/></g>
<g><path style="opacity:1" fill="#fc8e02" d="M 5.5,28.5 C 7.19928,28.5271 8.53261,29.1938 9.5,30.5C 9.55688,31.609 9.89022,32.609 10.5,33.5C 9.83333,33.5 9.16667,33.5 8.5,33.5C 6.74973,32.3406 5.74973,30.674 5.5,28.5 Z"/></g>
<g><path style="opacity:1" fill="#f3f212" d="M 30.5,30.5 C 32.4147,30.2155 34.0813,30.5489 35.5,31.5C 35.1667,32.5 34.5,33.1667 33.5,33.5C 32.8333,33.1667 32.1667,32.8333 31.5,32.5C 31.1667,31.8333 30.8333,31.1667 30.5,30.5 Z"/></g>
<g><path style="opacity:1" fill="#696667" d="M 40.5,29.5 C 43.5,29.5 46.5,29.5 49.5,29.5C 45.1433,30.0027 41.1433,31.6693 37.5,34.5C 36.8933,34.3764 36.56,34.0431 36.5,33.5C 37.5274,31.8058 38.8608,30.4725 40.5,29.5 Z"/></g>
<g><path style="opacity:1" fill="#494646" d="M 50.5,32.5 C 50.8417,31.6618 51.5084,31.3284 52.5,31.5C 54.5273,32.8606 56.194,34.5273 57.5,36.5C 57.5,37.5 57.5,38.5 57.5,39.5C 57.1667,39.5 56.8333,39.5 56.5,39.5C 55.9321,35.9326 53.9321,33.5993 50.5,32.5 Z"/></g>
<g><path style="opacity:1" fill="#fcd002" d="M 17.5,32.5 C 20.1667,32.5 22.8333,32.5 25.5,32.5C 26.5,33.1667 27.5,33.8333 28.5,34.5C 27.1667,34.5 25.8333,34.5 24.5,34.5C 23.5084,34.3284 22.8417,34.6618 22.5,35.5C 20.5659,34.8897 18.8993,33.8897 17.5,32.5 Z"/></g>
<g><path style="opacity:1" fill="#fde601" d="M 25.5,32.5 C 27.5,32.5 29.5,32.5 31.5,32.5C 32.1667,32.8333 32.8333,33.1667 33.5,33.5C 33.5,33.8333 33.5,34.1667 33.5,34.5C 32.8333,34.5 32.5,34.8333 32.5,35.5C 31.2921,34.7659 29.9587,34.4326 28.5,34.5C 27.5,33.8333 26.5,33.1667 25.5,32.5 Z"/></g>
<g><path style="opacity:1" fill="#646263" d="M 50.5,32.5 C 53.9321,33.5993 55.9321,35.9326 56.5,39.5C 56.5,40.1667 56.1667,40.5 55.5,40.5C 53.4569,34.3064 49.1235,31.9731 42.5,33.5C 44.8814,31.3605 47.5481,31.0271 50.5,32.5 Z"/></g>
<g><path style="opacity:1" fill="#292336" d="M 37.5,29.5 C 37.8333,29.5 38.1667,29.5 38.5,29.5C 39.1667,29.5 39.8333,29.5 40.5,29.5C 38.8608,30.4725 37.5274,31.8058 36.5,33.5C 35.5,33.8333 34.8333,34.5 34.5,35.5C 34.5,36.1667 34.1667,36.5 33.5,36.5C 33.5,35.8333 33.5,35.1667 33.5,34.5C 33.5,34.1667 33.5,33.8333 33.5,33.5C 34.5,33.1667 35.1667,32.5 35.5,31.5C 36.5,31.1667 37.1667,30.5 37.5,29.5 Z"/></g>
<g><path style="opacity:1" fill="#534f50" d="M 49.5,29.5 C 50.7095,29.9321 51.7095,30.5987 52.5,31.5C 51.5084,31.3284 50.8417,31.6618 50.5,32.5C 47.5481,31.0271 44.8814,31.3605 42.5,33.5C 40.5887,34.075 38.922,35.075 37.5,36.5C 36.791,35.596 35.791,35.2627 34.5,35.5C 34.8333,34.5 35.5,33.8333 36.5,33.5C 36.56,34.0431 36.8933,34.3764 37.5,34.5C 41.1433,31.6693 45.1433,30.0027 49.5,29.5 Z"/></g>
<g><path style="opacity:1" fill="#7a7002" d="M 9.5,30.5 C 9.83333,30.5 10.1667,30.5 10.5,30.5C 11.0076,32.2327 11.841,32.566 13,31.5C 13.2321,32.7375 13.7321,33.7375 14.5,34.5C 14.5,35.1667 14.5,35.8333 14.5,36.5C 14.1667,36.5 13.8333,36.5 13.5,36.5C 13.5,35.8333 13.1667,35.5 12.5,35.5C 12.1667,34.5 11.5,33.8333 10.5,33.5C 9.89022,32.609 9.55688,31.609 9.5,30.5 Z"/></g>
<g><path style="opacity:1" fill="#302f31" d="M 42.5,34.5 C 42.5,34.1667 42.5,33.8333 42.5,33.5C 49.1235,31.9731 53.4569,34.3064 55.5,40.5C 55.5,41.5 55.5,42.5 55.5,43.5C 55.1667,43.5 54.8333,43.5 54.5,43.5C 54.7678,41.901 54.4345,40.5676 53.5,39.5C 53.6716,38.5084 53.3382,37.8417 52.5,37.5C 51.9423,36.2101 50.9423,35.3768 49.5,35C 47.1902,34.5034 44.8568,34.3367 42.5,34.5 Z"/></g>
<g><path style="opacity:1" fill="#ea4b17" d="M 5.5,24.5 C 5.5,25.8333 5.5,27.1667 5.5,28.5C 5.74973,30.674 6.74973,32.3406 8.5,33.5C 9.60048,34.6049 10.2671,35.9382 10.5,37.5C 9.20577,36.7101 8.0391,35.7101 7,34.5C 6.50649,36.1341 6.33982,37.8008 6.5,39.5C 6.16667,39.5 5.83333,39.5 5.5,39.5C 4.16667,34.5 4.16667,29.5 5.5,24.5 Z"/></g>
<g><path style="opacity:1" fill="#fb5306" d="M 8.5,33.5 C 9.16667,33.5 9.83333,33.5 10.5,33.5C 11.5,33.8333 12.1667,34.5 12.5,35.5C 11.5946,36.9643 11.5946,38.2976 12.5,39.5C 10.9699,40.2112 9.63661,41.2112 8.5,42.5C 7.66175,42.1583 7.32842,41.4916 7.5,40.5C 9.37857,40.6068 9.7119,40.1068 8.5,39C 9.4158,38.7216 10.0825,38.2216 10.5,37.5C 10.2671,35.9382 9.60048,34.6049 8.5,33.5 Z"/></g>
<g><path style="opacity:1" fill="#e88504" d="M 18.5,37.5 C 17.8333,37.8333 17.1667,38.1667 16.5,38.5C 14.9731,38.573 13.9731,37.9063 13.5,36.5C 13.8333,36.5 14.1667,36.5 14.5,36.5C 15.7348,36.2786 16.7348,35.6119 17.5,34.5C 18.3857,35.325 18.719,36.325 18.5,37.5 Z"/></g>
<g><path style="opacity:1" fill="#e5a103" d="M 16.5,32.5 C 16.8333,32.5 17.1667,32.5 17.5,32.5C 18.8993,33.8897 20.5659,34.8897 22.5,35.5C 21.1667,36.5 21.1667,37.5 22.5,38.5C 21.0413,38.5674 19.7079,38.2341 18.5,37.5C 18.719,36.325 18.3857,35.325 17.5,34.5C 16.7348,35.6119 15.7348,36.2786 14.5,36.5C 14.5,35.8333 14.5,35.1667 14.5,34.5C 14.5,33.1667 15.1667,32.5 16.5,32.5 Z"/></g>
<g><path style="opacity:1" fill="#fac903" d="M 24.5,34.5 C 25.8333,34.5 27.1667,34.5 28.5,34.5C 29.9587,34.4326 31.2921,34.7659 32.5,35.5C 32.1667,36.1667 31.8333,36.8333 31.5,37.5C 29.1454,36.3414 26.8121,35.3414 24.5,34.5 Z"/></g>
<g><path style="opacity:1" fill="#2c231e" d="M 42.5,34.5 C 44.8568,34.3367 47.1902,34.5034 49.5,35C 50.9423,35.3768 51.9423,36.2101 52.5,37.5C 50.1516,37.3305 47.8183,36.9971 45.5,36.5C 43.6455,36.3402 42.3121,37.0069 41.5,38.5C 40.6618,38.8417 40.3284,39.5084 40.5,40.5C 40.1667,40.5 39.8333,40.5 39.5,40.5C 39.5,39.8333 39.1667,39.5 38.5,39.5C 39.0798,37.2512 40.4131,35.5846 42.5,34.5 Z"/></g>
<g><path style="opacity:1" fill="#ed9502" d="M 22.5,35.5 C 24.4553,35.7986 25.7886,36.7986 26.5,38.5C 24.2043,38.8041 23.871,39.8041 25.5,41.5C 24.8333,41.5 24.1667,41.5 23.5,41.5C 23.1667,40.8333 22.8333,40.1667 22.5,39.5C 22.5,39.1667 22.5,38.8333 22.5,38.5C 21.1667,37.5 21.1667,36.5 22.5,35.5 Z"/></g>
<g><path style="opacity:1" fill="#fbb002" d="M 22.5,35.5 C 22.8417,34.6618 23.5084,34.3284 24.5,34.5C 26.8121,35.3414 29.1454,36.3414 31.5,37.5C 31.5,38.1667 31.5,38.8333 31.5,39.5C 30.8333,39.5 30.1667,39.5 29.5,39.5C 28.791,38.596 27.791,38.2627 26.5,38.5C 25.7886,36.7986 24.4553,35.7986 22.5,35.5 Z"/></g>
<g><path style="opacity:1" fill="#f97f05" d="M 10.5,37.5 C 10.0825,38.2216 9.4158,38.7216 8.5,39C 9.7119,40.1068 9.37857,40.6068 7.5,40.5C 7.5,39.8333 7.16667,39.5 6.5,39.5C 6.33982,37.8008 6.50649,36.1341 7,34.5C 8.0391,35.7101 9.20577,36.7101 10.5,37.5 Z"/></g>
<g><path style="opacity:1" fill="#e95001" d="M 12.5,35.5 C 13.1667,35.5 13.5,35.8333 13.5,36.5C 13.9731,37.9063 14.9731,38.573 16.5,38.5C 16.6716,39.4916 16.3382,40.1583 15.5,40.5C 14.8333,40.5 14.1667,40.5 13.5,40.5C 13.5,39.8333 13.1667,39.5 12.5,39.5C 11.5946,38.2976 11.5946,36.9643 12.5,35.5 Z"/></g>
<g><path style="opacity:1" fill="#982b03" d="M 52.5,37.5 C 53.3382,37.8417 53.6716,38.5084 53.5,39.5C 52.8333,39.1667 52.1667,38.8333 51.5,38.5C 49.7085,38.634 48.0418,38.3007 46.5,37.5C 44.7839,37.6287 43.1172,37.962 41.5,38.5C 42.3121,37.0069 43.6455,36.3402 45.5,36.5C 47.8183,36.9971 50.1516,37.3305 52.5,37.5 Z"/></g>
<g><path style="opacity:1" fill="#fb8903" d="M 26.5,38.5 C 27.791,38.2627 28.791,38.596 29.5,39.5C 28.448,39.3505 27.448,39.5172 26.5,40C 27.8228,40.8159 28.4894,41.9826 28.5,43.5C 27.5,42.8333 26.5,42.1667 25.5,41.5C 23.871,39.8041 24.2043,38.8041 26.5,38.5 Z"/></g>
<g><path style="opacity:1" fill="#3b3634" d="M 33.5,34.5 C 33.5,35.1667 33.5,35.8333 33.5,36.5C 33.5,37.5 33.5,38.5 33.5,39.5C 33.5172,41.5648 33.8505,43.5648 34.5,45.5C 33.8333,45.1667 33.1667,44.8333 32.5,44.5C 32.5,43.8333 32.1667,43.5 31.5,43.5C 31.5,42.1667 31.5,40.8333 31.5,39.5C 31.5,38.8333 31.5,38.1667 31.5,37.5C 31.8333,36.8333 32.1667,36.1667 32.5,35.5C 32.5,34.8333 32.8333,34.5 33.5,34.5 Z"/></g>
<g><path style="opacity:1" fill="#db0200" d="M 46.5,37.5 C 46.5569,38.609 46.8902,39.609 47.5,40.5C 44.345,43.516 42.345,42.8494 41.5,38.5C 43.1172,37.962 44.7839,37.6287 46.5,37.5 Z"/></g>
<g><path style="opacity:1" fill="#794b03" d="M 18.5,37.5 C 19.7079,38.2341 21.0413,38.5674 22.5,38.5C 22.5,38.8333 22.5,39.1667 22.5,39.5C 20.712,39.2148 19.0453,39.5481 17.5,40.5C 17.8627,41.1835 18.1961,41.8501 18.5,42.5C 17.6618,42.8417 17.3284,43.5084 17.5,44.5C 16.6554,43.3285 15.9887,41.9952 15.5,40.5C 16.3382,40.1583 16.6716,39.4916 16.5,38.5C 17.1667,38.1667 17.8333,37.8333 18.5,37.5 Z"/></g>
<g><path style="opacity:1" fill="#7b3702" d="M 22.5,39.5 C 22.8333,40.1667 23.1667,40.8333 23.5,41.5C 22.6236,41.3691 21.9569,41.7025 21.5,42.5C 22.6527,43.6868 22.6527,44.6868 21.5,45.5C 20.8333,44.1667 19.8333,43.1667 18.5,42.5C 18.1961,41.8501 17.8627,41.1835 17.5,40.5C 19.0453,39.5481 20.712,39.2148 22.5,39.5 Z"/></g>
<g><path style="opacity:1" fill="#4e4b4b" d="M 34.5,35.5 C 35.791,35.2627 36.791,35.596 37.5,36.5C 36.5033,39.3283 36.5033,41.995 37.5,44.5C 37.5,45.1667 37.5,45.8333 37.5,46.5C 36.8333,46.8333 36.1667,47.1667 35.5,47.5C 35.1667,46.8333 34.8333,46.1667 34.5,45.5C 35.6341,43.0336 35.8007,40.367 35,37.5C 34.7216,38.4158 34.2216,39.0825 33.5,39.5C 33.5,38.5 33.5,37.5 33.5,36.5C 34.1667,36.5 34.5,36.1667 34.5,35.5 Z"/></g>
<g><path style="opacity:1" fill="#f71903" d="M 12.5,39.5 C 13.1667,39.5 13.5,39.8333 13.5,40.5C 13.5,40.8333 13.5,41.1667 13.5,41.5C 12.8333,42.5 12.1667,43.5 11.5,44.5C 10.2905,44.0679 9.29049,43.4013 8.5,42.5C 9.63661,41.2112 10.9699,40.2112 12.5,39.5 Z"/></g>
<g><path style="opacity:1" fill="#5b5759" d="M 34.5,45.5 C 33.8505,43.5648 33.5172,41.5648 33.5,39.5C 34.2216,39.0825 34.7216,38.4158 35,37.5C 35.8007,40.367 35.6341,43.0336 34.5,45.5 Z"/></g>
<g><path style="opacity:1" fill="#980401" d="M 51.5,38.5 C 52.1667,38.8333 52.8333,39.1667 53.5,39.5C 54.4345,40.5676 54.7678,41.901 54.5,43.5C 54.6716,44.4916 54.3382,45.1583 53.5,45.5C 53.0791,43.0901 51.7458,41.2568 49.5,40C 50.4158,39.7216 51.0825,39.2216 51.5,38.5 Z"/></g>
<g><path style="opacity:1" fill="#4f4e50" d="M 56.5,39.5 C 56.8333,39.5 57.1667,39.5 57.5,39.5C 57.6621,41.5273 57.4955,43.5273 57,45.5C 56.6174,46.056 56.1174,46.3893 55.5,46.5C 55.5,45.5 55.5,44.5 55.5,43.5C 55.5,42.5 55.5,41.5 55.5,40.5C 56.1667,40.5 56.5,40.1667 56.5,39.5 Z"/></g>
<g><path style="opacity:1" fill="#785d04" d="M 13.5,41.5 C 13.5,41.1667 13.5,40.8333 13.5,40.5C 14.1667,40.5 14.8333,40.5 15.5,40.5C 15.9887,41.9952 16.6554,43.3285 17.5,44.5C 17.5,45.1667 17.8333,45.5 18.5,45.5C 18.6716,46.4916 18.3382,47.1583 17.5,47.5C 16.1535,45.4632 14.8202,43.4632 13.5,41.5 Z"/></g>
<g><path style="opacity:1" fill="#686668" d="M 42.5,33.5 C 42.5,33.8333 42.5,34.1667 42.5,34.5C 40.4131,35.5846 39.0798,37.2512 38.5,39.5C 38.5,41.1667 38.5,42.8333 38.5,44.5C 38.1667,44.5 37.8333,44.5 37.5,44.5C 36.5033,41.995 36.5033,39.3283 37.5,36.5C 38.922,35.075 40.5887,34.075 42.5,33.5 Z"/></g>
<g><path style="opacity:1" fill="#1f3536" d="M 38.5,39.5 C 39.1667,39.5 39.5,39.8333 39.5,40.5C 39.2593,44.0188 40.5926,46.6855 43.5,48.5C 43.5,48.8333 43.5,49.1667 43.5,49.5C 43.1667,49.5 42.8333,49.5 42.5,49.5C 40.457,48.4206 39.1237,46.754 38.5,44.5C 38.5,42.8333 38.5,41.1667 38.5,39.5 Z"/></g>
<g><path style="opacity:1" fill="#a90001" d="M 41.5,38.5 C 42.345,42.8494 44.345,43.516 47.5,40.5C 48.404,41.209 48.7373,42.209 48.5,43.5C 47.209,43.2627 46.209,43.596 45.5,44.5C 44.609,43.8902 43.609,43.5569 42.5,43.5C 40.9519,43.1788 40.2852,42.1788 40.5,40.5C 40.3284,39.5084 40.6618,38.8417 41.5,38.5 Z"/></g>
<g><path style="opacity:1" fill="#b80b05" d="M 46.5,37.5 C 48.0418,38.3007 49.7085,38.634 51.5,38.5C 51.0825,39.2216 50.4158,39.7216 49.5,40C 51.7458,41.2568 53.0791,43.0901 53.5,45.5C 53.5,46.1667 53.1667,46.5 52.5,46.5C 51.9522,44.4677 50.6188,43.4677 48.5,43.5C 48.7373,42.209 48.404,41.209 47.5,40.5C 46.8902,39.609 46.5569,38.609 46.5,37.5 Z"/></g>
<g><path style="opacity:1" fill="#ec4001" d="M 29.5,39.5 C 30.1667,39.5 30.8333,39.5 31.5,39.5C 31.5,40.8333 31.5,42.1667 31.5,43.5C 31.5,44.1667 31.1667,44.5 30.5,44.5C 29.5084,44.6716 28.8417,44.3382 28.5,43.5C 28.4894,41.9826 27.8228,40.8159 26.5,40C 27.448,39.5172 28.448,39.3505 29.5,39.5 Z"/></g>
<g><path style="opacity:1" fill="#ab0106" d="M 42.5,43.5 C 43.609,43.5569 44.609,43.8902 45.5,44.5C 46.6719,45.7053 48.0052,45.7053 49.5,44.5C 50.5827,45.365 50.7494,46.365 50,47.5C 49.2825,46.5494 48.4491,46.3828 47.5,47C 48.2438,48.0386 49.2438,48.5386 50.5,48.5C 50.1583,49.3382 49.4916,49.6716 48.5,49.5C 46.8333,49.5 45.1667,49.5 43.5,49.5C 43.5,49.1667 43.5,48.8333 43.5,48.5C 44.2625,47.7321 45.2625,47.2321 46.5,47C 44.4556,46.5017 43.1223,45.335 42.5,43.5 Z"/></g>
<g><path style="opacity:1" fill="#b6321f" d="M 5.5,39.5 C 5.83333,39.5 6.16667,39.5 6.5,39.5C 7.16667,39.5 7.5,39.8333 7.5,40.5C 7.32842,41.4916 7.66175,42.1583 8.5,42.5C 9.29049,43.4013 10.2905,44.0679 11.5,44.5C 10.8902,45.391 10.5569,46.391 10.5,47.5C 7.83612,45.5156 6.16945,42.8489 5.5,39.5 Z"/></g>
<g><path style="opacity:1" fill="#724401" d="M 23.5,41.5 C 24.1667,41.5 24.8333,41.5 25.5,41.5C 26.5,42.1667 27.5,42.8333 28.5,43.5C 28.8417,44.3382 29.5084,44.6716 30.5,44.5C 30.631,45.2389 30.4643,45.9056 30,46.5C 28.6439,45.6198 27.1439,45.2865 25.5,45.5C 25.4729,43.8007 24.8062,42.4674 23.5,41.5 Z"/></g>
<g><path style="opacity:1" fill="#c90001" d="M 48.5,43.5 C 50.6188,43.4677 51.9522,44.4677 52.5,46.5C 52.1667,47.5 51.5,48.1667 50.5,48.5C 49.2438,48.5386 48.2438,48.0386 47.5,47C 48.4491,46.3828 49.2825,46.5494 50,47.5C 50.7494,46.365 50.5827,45.365 49.5,44.5C 48.0052,45.7053 46.6719,45.7053 45.5,44.5C 46.209,43.596 47.209,43.2627 48.5,43.5 Z"/></g>
<g><path style="opacity:1" fill="#e11604" d="M 13.5,41.5 C 14.8202,43.4632 16.1535,45.4632 17.5,47.5C 15.9974,47.8346 14.664,47.8346 13.5,47.5C 12.5,47.5 11.5,47.5 10.5,47.5C 10.5569,46.391 10.8902,45.391 11.5,44.5C 12.1667,43.5 12.8333,42.5 13.5,41.5 Z"/></g>
<g><path style="opacity:1" fill="#7c0f02" d="M 18.5,42.5 C 19.8333,43.1667 20.8333,44.1667 21.5,45.5C 21.5,46.1667 21.1667,46.5 20.5,46.5C 19.8333,46.1667 19.1667,45.8333 18.5,45.5C 17.8333,45.5 17.5,45.1667 17.5,44.5C 17.3284,43.5084 17.6618,42.8417 18.5,42.5 Z"/></g>
<g><path style="opacity:1" fill="#7d1e04" d="M 23.5,41.5 C 24.8062,42.4674 25.4729,43.8007 25.5,45.5C 24.4489,46.2223 23.7822,47.2223 23.5,48.5C 22.6618,48.8417 22.3284,49.5084 22.5,50.5C 22.1667,50.5 21.8333,50.5 21.5,50.5C 21.5674,49.0413 21.2341,47.7079 20.5,46.5C 21.1667,46.5 21.5,46.1667 21.5,45.5C 22.6527,44.6868 22.6527,43.6868 21.5,42.5C 21.9569,41.7025 22.6236,41.3691 23.5,41.5 Z"/></g>
<g><path style="opacity:1" fill="#970306" d="M 39.5,40.5 C 39.8333,40.5 40.1667,40.5 40.5,40.5C 40.2852,42.1788 40.9519,43.1788 42.5,43.5C 43.1223,45.335 44.4556,46.5017 46.5,47C 45.2625,47.2321 44.2625,47.7321 43.5,48.5C 40.5926,46.6855 39.2593,44.0188 39.5,40.5 Z"/></g>
<g><path style="opacity:1" fill="#8d5904" d="M 18.5,45.5 C 19.1667,45.8333 19.8333,46.1667 20.5,46.5C 21.2341,47.7079 21.5674,49.0413 21.5,50.5C 21.5654,50.9382 21.3988,51.2716 21,51.5C 20.8413,49.6573 20.3413,48.9907 19.5,49.5C 18.1667,49.5 17.5,48.8333 17.5,47.5C 18.3382,47.1583 18.6716,46.4916 18.5,45.5 Z"/></g>
<g><path style="opacity:1" fill="#676465" d="M 37.5,44.5 C 37.8333,44.5 38.1667,44.5 38.5,44.5C 39.1237,46.754 40.457,48.4206 42.5,49.5C 42.5,50.1667 42.1667,50.5 41.5,50.5C 41.1667,50.5 40.8333,50.5 40.5,50.5C 39.5,49.1667 38.5,47.8333 37.5,46.5C 37.5,45.8333 37.5,45.1667 37.5,44.5 Z"/></g>
<g><path style="opacity:1" fill="#413d3e" d="M 57.5,36.5 C 57.8333,36.5 58.1667,36.5 58.5,36.5C 59.7943,40.7327 59.7943,45.0661 58.5,49.5C 57.5,49.5 56.5,49.5 55.5,49.5C 55.5,48.5 55.5,47.5 55.5,46.5C 56.1174,46.3893 56.6174,46.056 57,45.5C 57.4955,43.5273 57.6621,41.5273 57.5,39.5C 57.5,38.5 57.5,37.5 57.5,36.5 Z"/></g>
<g><path style="opacity:1" fill="#793504" d="M 31.5,43.5 C 32.1667,43.5 32.5,43.8333 32.5,44.5C 32.5,45.5 32.5,46.5 32.5,47.5C 31.6554,48.6715 30.9887,50.0048 30.5,51.5C 29.8333,51.5 29.1667,51.5 28.5,51.5C 28.1667,51.5 27.8333,51.5 27.5,51.5C 26.7377,49.7376 25.4044,48.7376 23.5,48.5C 23.7822,47.2223 24.4489,46.2223 25.5,45.5C 27.1439,45.2865 28.6439,45.6198 30,46.5C 30.4643,45.9056 30.631,45.2389 30.5,44.5C 31.1667,44.5 31.5,44.1667 31.5,43.5 Z"/></g>
<g><path style="opacity:1" fill="#2d2d30" d="M 32.5,44.5 C 33.1667,44.8333 33.8333,45.1667 34.5,45.5C 34.8333,46.1667 35.1667,46.8333 35.5,47.5C 36.5,49.1667 37.8333,50.5 39.5,51.5C 39.1583,52.3382 38.4916,52.6716 37.5,52.5C 35.4727,51.1394 33.806,49.4727 32.5,47.5C 32.5,46.5 32.5,45.5 32.5,44.5 Z"/></g>
<g><path style="opacity:1" fill="#484445" d="M 37.5,46.5 C 38.5,47.8333 39.5,49.1667 40.5,50.5C 39.8333,50.5 39.5,50.8333 39.5,51.5C 37.8333,50.5 36.5,49.1667 35.5,47.5C 36.1667,47.1667 36.8333,46.8333 37.5,46.5 Z"/></g>
<g><path style="opacity:1" fill="#373d3c" d="M 54.5,43.5 C 54.8333,43.5 55.1667,43.5 55.5,43.5C 55.5,44.5 55.5,45.5 55.5,46.5C 53.8333,47.5 52.5,48.8333 51.5,50.5C 50.209,50.7373 49.209,50.404 48.5,49.5C 49.4916,49.6716 50.1583,49.3382 50.5,48.5C 51.5,48.1667 52.1667,47.5 52.5,46.5C 53.1667,46.5 53.5,46.1667 53.5,45.5C 54.3382,45.1583 54.6716,44.4916 54.5,43.5 Z"/></g>
<g><path style="opacity:1" fill="#c12512" d="M 10.5,47.5 C 11.5,47.5 12.5,47.5 13.5,47.5C 14.0577,48.7899 15.0577,49.6232 16.5,50C 15.4019,50.7697 15.4019,51.603 16.5,52.5C 16.1667,52.5 15.8333,52.5 15.5,52.5C 13.5,51.1667 11.8333,49.5 10.5,47.5 Z"/></g>
<g><path style="opacity:1" fill="#730403" d="M 23.5,48.5 C 25.4044,48.7376 26.7377,49.7376 27.5,51.5C 26.713,53.1042 25.3797,53.7709 23.5,53.5C 22.8902,52.609 22.5569,51.609 22.5,50.5C 22.3284,49.5084 22.6618,48.8417 23.5,48.5 Z"/></g>
<g><path style="opacity:1" fill="#535051" d="M 55.5,46.5 C 55.5,47.5 55.5,48.5 55.5,49.5C 56.5,49.5 57.5,49.5 58.5,49.5C 57.7095,50.4013 56.7095,51.0679 55.5,51.5C 54.4324,50.5655 53.099,50.2322 51.5,50.5C 52.5,48.8333 53.8333,47.5 55.5,46.5 Z"/></g>
<g><path style="opacity:1" fill="#f11b02" d="M 17.5,47.5 C 17.5,48.8333 18.1667,49.5 19.5,49.5C 19.4326,50.9587 19.7659,52.2921 20.5,53.5C 19.0413,53.5674 17.7079,53.2341 16.5,52.5C 15.4019,51.603 15.4019,50.7697 16.5,50C 15.0577,49.6232 14.0577,48.7899 13.5,47.5C 14.664,47.8346 15.9974,47.8346 17.5,47.5 Z"/></g>
<g><path style="opacity:1" fill="#da2b02" d="M 32.5,47.5 C 33.806,49.4727 35.4727,51.1394 37.5,52.5C 37.5,52.8333 37.5,53.1667 37.5,53.5C 36.5,53.5 35.5,53.5 34.5,53.5C 33.1667,52.8333 31.8333,52.1667 30.5,51.5C 30.9887,50.0048 31.6554,48.6715 32.5,47.5 Z"/></g>
<g><path style="opacity:1" fill="#7b1503" d="M 21.5,50.5 C 21.8333,50.5 22.1667,50.5 22.5,50.5C 22.5569,51.609 22.8902,52.609 23.5,53.5C 23.5,53.8333 23.5,54.1667 23.5,54.5C 22.391,54.4431 21.391,54.1098 20.5,53.5C 19.7659,52.2921 19.4326,50.9587 19.5,49.5C 20.3413,48.9907 20.8413,49.6573 21,51.5C 21.3988,51.2716 21.5654,50.9382 21.5,50.5 Z"/></g>
<g><path style="opacity:1" fill="#fb2101" d="M 28.5,51.5 C 29.1667,51.5 29.8333,51.5 30.5,51.5C 31.8333,52.1667 33.1667,52.8333 34.5,53.5C 33.4324,54.4345 32.099,54.7678 30.5,54.5C 29.8333,53.5 29.1667,52.5 28.5,51.5 Z"/></g>
<g><path style="opacity:1" fill="#3c3837" d="M 40.5,50.5 C 40.8333,50.5 41.1667,50.5 41.5,50.5C 43.78,52.2227 46.4467,52.8893 49.5,52.5C 49.8333,53.1667 50.1667,53.8333 50.5,54.5C 46.5651,53.801 42.5651,53.801 38.5,54.5C 38.5,53.8333 38.1667,53.5 37.5,53.5C 37.5,53.1667 37.5,52.8333 37.5,52.5C 38.4916,52.6716 39.1583,52.3382 39.5,51.5C 39.5,50.8333 39.8333,50.5 40.5,50.5 Z"/></g>
<g><path style="opacity:1" fill="#504f50" d="M 42.5,49.5 C 42.8333,49.5 43.1667,49.5 43.5,49.5C 45.1667,49.5 46.8333,49.5 48.5,49.5C 49.209,50.404 50.209,50.7373 51.5,50.5C 50.8333,51.1667 50.1667,51.8333 49.5,52.5C 46.4467,52.8893 43.78,52.2227 41.5,50.5C 42.1667,50.5 42.5,50.1667 42.5,49.5 Z"/></g>
<g><path style="opacity:1" fill="#464243" d="M 51.5,50.5 C 53.099,50.2322 54.4324,50.5655 55.5,51.5C 54.3406,53.2503 52.674,54.2503 50.5,54.5C 50.1667,53.8333 49.8333,53.1667 49.5,52.5C 50.1667,51.8333 50.8333,51.1667 51.5,50.5 Z"/></g>
<g><path style="opacity:1" fill="#ec3601" d="M 27.5,51.5 C 27.8333,51.5 28.1667,51.5 28.5,51.5C 29.1667,52.5 29.8333,53.5 30.5,54.5C 28.8828,55.038 27.2161,55.3713 25.5,55.5C 24.8333,55.5 24.1667,55.5 23.5,55.5C 23.5,55.1667 23.5,54.8333 23.5,54.5C 23.5,54.1667 23.5,53.8333 23.5,53.5C 25.3797,53.7709 26.713,53.1042 27.5,51.5 Z"/></g>
<g><path style="opacity:1" fill="#5c6955" d="M 15.5,52.5 C 15.8333,52.5 16.1667,52.5 16.5,52.5C 17.7079,53.2341 19.0413,53.5674 20.5,53.5C 21.391,54.1098 22.391,54.4431 23.5,54.5C 23.5,54.8333 23.5,55.1667 23.5,55.5C 22.1667,55.5 20.8333,55.5 19.5,55.5C 17.7697,54.9744 16.4363,53.9744 15.5,52.5 Z"/></g>
<g><path style="opacity:1" fill="#464444" d="M 50.5,54.5 C 46.3656,55.4849 42.0323,55.8182 37.5,55.5C 37.1667,55.5 36.8333,55.5 36.5,55.5C 36.8417,54.6618 37.5084,54.3284 38.5,54.5C 42.5651,53.801 46.5651,53.801 50.5,54.5 Z"/></g>
<g><path style="opacity:1" fill="#d0b123" d="M 34.5,53.5 C 35.5,53.5 36.5,53.5 37.5,53.5C 38.1667,53.5 38.5,53.8333 38.5,54.5C 37.5084,54.3284 36.8417,54.6618 36.5,55.5C 32.6837,56.6203 29.0171,56.6203 25.5,55.5C 27.2161,55.3713 28.8828,55.038 30.5,54.5C 32.099,54.7678 33.4324,54.4345 34.5,53.5 Z"/></g>
<g><path style="opacity:1" fill="#61687c" d="M 19.5,55.5 C 20.8333,55.5 22.1667,55.5 23.5,55.5C 24.1667,55.5 24.8333,55.5 25.5,55.5C 29.0171,56.6203 32.6837,56.6203 36.5,55.5C 36.8333,55.5 37.1667,55.5 37.5,55.5C 37.3893,56.1174 37.056,56.6174 36.5,57C 34.1667,57.1667 31.8333,57.3333 29.5,57.5C 25.8589,57.6852 22.5256,57.0186 19.5,55.5 Z"/></g>
</svg>
