<?xml version="1.0" standalone="no"?>
<!DOCTYPE svg PUBLIC "-//W3C//DTD SVG 20010904//EN"
 "http://www.w3.org/TR/2001/REC-SVG-20010904/DTD/svg10.dtd">
<svg version="1.0" xmlns="http://www.w3.org/2000/svg"
 width="64.000000pt" height="64.000000pt" viewBox="0 0 64.000000 64.000000"
 preserveAspectRatio="xMidYMid meet">

<g transform="translate(0.000000,64.000000) scale(0.100000,-0.100000)"
fill="#000000" stroke="none">
<path d="M565 600 c4 -13 2 -20 -6 -20 -7 0 -10 -3 -7 -6 10 -9 48 16 48 31 0
8 -9 15 -21 15 -16 0 -19 -4 -14 -20z"/>
<path d="M283 503 c15 -2 37 -2 50 0 12 2 0 4 -28 4 -27 0 -38 -2 -22 -4z"/>
<path d="M239 112 c13 -18 32 -39 42 -45 11 -7 19 -15 19 -19 0 -14 -24 -4
-41 17 -17 19 -18 19 -15 1 5 -40 85 -60 122 -30 18 15 18 15 -3 5 -25 -12
-36 -2 -22 19 13 21 11 36 -3 22 -20 -20 -40 -14 -82 26 l-39 37 22 -33z"/>
</g>
</svg>
