<?xml version="1.0" encoding="UTF-8"?>
<!DOCTYPE svg PUBLIC "-//W3C//DTD SVG 1.1//EN" "http://www.w3.org/Graphics/SVG/1.1/DTD/svg11.dtd">
<svg xmlns="http://www.w3.org/2000/svg" version="1.1" width="64px" height="64px" style="shape-rendering:geometricPrecision; text-rendering:geometricPrecision; image-rendering:optimizeQuality; fill-rule:evenodd; clip-rule:evenodd" xmlns:xlink="http://www.w3.org/1999/xlink">
<g><path style="opacity:0.996" fill="#5fb233" d="M 53.5,-0.5 C 54.5,-0.5 55.5,-0.5 56.5,-0.5C 58.0276,0.309209 59.6943,0.975875 61.5,1.5C 61.106,3.70986 59.7727,5.04319 57.5,5.5C 56.7387,4.60908 55.7387,3.94242 54.5,3.5C 53.5713,2.31116 53.238,0.977822 53.5,-0.5 Z"/></g>
<g><path style="opacity:1" fill="#7539f4" d="M 55.5,2.5 C 56.7082,1.21798 58.0416,1.21798 59.5,2.5C 58.1916,3.62563 56.8583,3.62563 55.5,2.5 Z"/></g>
<g><path style="opacity:0.992" fill="#b49213" d="M 50.5,-0.5 C 51.5,-0.5 52.5,-0.5 53.5,-0.5C 53.238,0.977822 53.5713,2.31116 54.5,3.5C 55.7387,3.94242 56.7387,4.60908 57.5,5.5C 57.1583,6.33825 56.4916,6.67158 55.5,6.5C 53.0504,6.29803 50.717,6.63137 48.5,7.5C 48.1072,4.48674 48.7739,1.82007 50.5,-0.5 Z"/></g>
<g><path style="opacity:0.996" fill="#f0d602" d="M 61.5,1.5 C 62.1667,2.16667 62.8333,2.83333 63.5,3.5C 63.5,4.5 63.5,5.5 63.5,6.5C 57.3719,7.62799 54.0386,11.2947 53.5,17.5C 52.609,18.1098 51.609,18.4431 50.5,18.5C 50.7031,16.9557 51.3698,15.6223 52.5,14.5C 52.1667,13.8333 51.8333,13.1667 51.5,12.5C 53.2516,10.7541 54.5849,8.75405 55.5,6.5C 56.4916,6.67158 57.1583,6.33825 57.5,5.5C 59.7727,5.04319 61.106,3.70986 61.5,1.5 Z"/></g>
<g><path style="opacity:0.212" fill="#cc2100" d="M 48.5,7.5 C 48.5,8.16667 48.5,8.83333 48.5,9.5C 40.6397,9.36441 32.6397,10.0311 24.5,11.5C 21.5,11.5 18.5,11.5 15.5,11.5C 13.3285,10.7551 10.9952,10.5885 8.5,11C 7.74756,10.3292 7.41423,9.4959 7.5,8.5C 10.7842,8.72326 13.9509,9.38993 17,10.5C 26.6382,9.26617 36.3049,7.93284 46,6.5C 46.9021,6.74325 47.7354,7.07658 48.5,7.5 Z"/></g>
<g><path style="opacity:0.259" fill="#e45800" d="M 63.5,6.5 C 63.5,8.5 63.5,10.5 63.5,12.5C 59.9562,13.7895 56.6229,15.4561 53.5,17.5C 54.0386,11.2947 57.3719,7.62799 63.5,6.5 Z"/></g>
<g><path style="opacity:0.463" fill="#da4500" d="M 48.5,9.5 C 48.1249,11.6976 47.4582,13.6976 46.5,15.5C 46.5,14.1667 46.5,12.8333 46.5,11.5C 44.2655,11.6199 42.0989,11.2865 40,10.5C 37.9701,10.9537 36.1368,11.6204 34.5,12.5C 30.9581,12.8128 27.6248,12.4794 24.5,11.5C 32.6397,10.0311 40.6397,9.36441 48.5,9.5 Z"/></g>
<g><path style="opacity:0.984" fill="#beda00" d="M 55.5,6.5 C 54.5849,8.75405 53.2516,10.7541 51.5,12.5C 51.8333,13.1667 52.1667,13.8333 52.5,14.5C 51.3698,15.6223 50.7031,16.9557 50.5,18.5C 49.735,19.6602 48.735,20.6602 47.5,21.5C 46.6143,20.675 46.281,19.675 46.5,18.5C 46.5,17.5 46.5,16.5 46.5,15.5C 47.4582,13.6976 48.1249,11.6976 48.5,9.5C 48.5,8.83333 48.5,8.16667 48.5,7.5C 50.717,6.63137 53.0504,6.29803 55.5,6.5 Z"/></g>
<g><path style="opacity:0.996" fill="#df9f0a" d="M 7.5,8.5 C 7.41423,9.4959 7.74756,10.3292 8.5,11C 10.9952,10.5885 13.3285,10.7551 15.5,11.5C 13.6568,12.2829 11.6568,12.9495 9.5,13.5C 8.7084,14.6998 8.7084,16.0331 9.5,17.5C 7.74395,18.5521 7.07729,20.2188 7.5,22.5C 6.06504,20.4024 4.89837,18.0691 4,15.5C 2.87099,13.8588 1.37099,12.8588 -0.5,12.5C -0.5,11.1667 -0.5,9.83333 -0.5,8.5C 2.38167,8.01394 5.04834,8.01394 7.5,8.5 Z"/></g>
<g><path style="opacity:0.984" fill="#df7100" d="M 15.5,11.5 C 18.5,11.5 21.5,11.5 24.5,11.5C 27.6248,12.4794 30.9581,12.8128 34.5,12.5C 30.3656,13.4849 26.0323,13.8182 21.5,13.5C 20.5084,13.3284 19.8417,13.6618 19.5,14.5C 20.0577,15.7899 21.0577,16.6232 22.5,17C 22.2716,17.3988 21.9382,17.5654 21.5,17.5C 20.8333,17.5 20.1667,17.5 19.5,17.5C 17.5615,15.8372 15.2282,15.1706 12.5,15.5C 12.5,17.1667 12.5,18.8333 12.5,20.5C 11.4306,23.1956 12.4306,25.1956 15.5,26.5C 15.8333,27.1667 16.1667,27.8333 16.5,28.5C 16.5,28.8333 16.5,29.1667 16.5,29.5C 14.4017,28.0857 13.4017,28.7524 13.5,31.5C 13.1667,31.5 12.8333,31.5 12.5,31.5C 11.5029,26.8575 10.5029,22.1908 9.5,17.5C 8.7084,16.0331 8.7084,14.6998 9.5,13.5C 11.6568,12.9495 13.6568,12.2829 15.5,11.5 Z"/></g>
<g><path style="opacity:0.186" fill="#d52500" d="M 46.5,15.5 C 46.5,16.5 46.5,17.5 46.5,18.5C 45.8333,18.5 45.5,18.8333 45.5,19.5C 43.0829,17.5889 40.7496,15.4222 38.5,13C 37.2068,12.51 35.8734,12.3433 34.5,12.5C 36.1368,11.6204 37.9701,10.9537 40,10.5C 42.0989,11.2865 44.2655,11.6199 46.5,11.5C 46.5,12.8333 46.5,14.1667 46.5,15.5 Z"/></g>
<g><path style="opacity:0.408" fill="#d33000" d="M 34.5,12.5 C 35.8734,12.3433 37.2068,12.51 38.5,13C 40.7496,15.4222 43.0829,17.5889 45.5,19.5C 45.0733,22.0098 44.4067,24.3432 43.5,26.5C 43.5,26.1667 43.5,25.8333 43.5,25.5C 43.7047,22.0136 42.3714,21.0136 39.5,22.5C 38.6868,21.3473 37.6868,21.3473 36.5,22.5C 35.1747,19.0232 36.5081,17.1899 40.5,17C 38.4277,14.8515 36.5944,15.0182 35,17.5C 34.6667,16.8333 34.3333,16.1667 34,15.5C 33.0766,16.7588 32.2432,18.0921 31.5,19.5C 30.4763,18.1468 29.143,17.4802 27.5,17.5C 25.3469,18.5729 23.3469,18.5729 21.5,17.5C 21.9382,17.5654 22.2716,17.3988 22.5,17C 21.0577,16.6232 20.0577,15.7899 19.5,14.5C 20.4916,14.6716 21.1583,14.3382 21.5,13.5C 26.0323,13.8182 30.3656,13.4849 34.5,12.5 Z"/></g>
<g><path style="opacity:0.115" fill="#e72300" d="M 39.5,22.5 C 38.1439,24.5382 36.4773,24.8715 34.5,23.5C 33.3115,24.0476 32.1448,24.3809 31,24.5C 30.5831,23.244 29.7498,22.5774 28.5,22.5C 29.6016,20.9081 28.935,20.0748 26.5,20C 28.6192,19.6582 28.9526,18.8249 27.5,17.5C 29.143,17.4802 30.4763,18.1468 31.5,19.5C 32.2432,18.0921 33.0766,16.7588 34,15.5C 34.3333,16.1667 34.6667,16.8333 35,17.5C 36.5944,15.0182 38.4277,14.8515 40.5,17C 36.5081,17.1899 35.1747,19.0232 36.5,22.5C 37.6868,21.3473 38.6868,21.3473 39.5,22.5 Z"/></g>
<g><path style="opacity:0.128" fill="#ea2e00" d="M 19.5,17.5 C 19.6107,18.1174 19.944,18.6174 20.5,19C 19.2625,19.2321 18.2625,19.7321 17.5,20.5C 18.3855,22.2702 17.5521,23.2702 15,23.5C 13.2509,23.2517 12.4176,22.2517 12.5,20.5C 12.5,18.8333 12.5,17.1667 12.5,15.5C 15.2282,15.1706 17.5615,15.8372 19.5,17.5 Z"/></g>
<g><path style="opacity:0.11" fill="#de2000" d="M 19.5,17.5 C 20.1667,17.5 20.8333,17.5 21.5,17.5C 23.3469,18.5729 25.3469,18.5729 27.5,17.5C 28.9526,18.8249 28.6192,19.6582 26.5,20C 28.935,20.0748 29.6016,20.9081 28.5,22.5C 28.4732,25.3903 27.3065,26.3903 25,25.5C 23.9614,26.2438 23.4614,27.2438 23.5,28.5C 21.1667,29.8333 18.8333,29.8333 16.5,28.5C 16.1667,27.8333 15.8333,27.1667 15.5,26.5C 18.5959,27.0934 20.9292,26.0934 22.5,23.5C 21.5791,21.244 19.9124,20.244 17.5,20.5C 18.2625,19.7321 19.2625,19.2321 20.5,19C 19.944,18.6174 19.6107,18.1174 19.5,17.5 Z"/></g>
<g><path style="opacity:0.988" fill="#cfb901" d="M 53.5,17.5 C 50.6783,21.6328 48.345,25.9661 46.5,30.5C 46.631,29.7611 46.4643,29.0944 46,28.5C 43.7215,32.5607 41.5548,36.5607 39.5,40.5C 40.3705,37.8877 41.0372,35.221 41.5,32.5C 42.7384,30.7857 43.405,28.7857 43.5,26.5C 44.4067,24.3432 45.0733,22.0098 45.5,19.5C 45.5,18.8333 45.8333,18.5 46.5,18.5C 46.281,19.675 46.6143,20.675 47.5,21.5C 48.735,20.6602 49.735,19.6602 50.5,18.5C 51.609,18.4431 52.609,18.1098 53.5,17.5 Z"/></g>
<g><path style="opacity:0.057" fill="#e62800" d="M 12.5,20.5 C 12.4176,22.2517 13.2509,23.2517 15,23.5C 17.5521,23.2702 18.3855,22.2702 17.5,20.5C 19.9124,20.244 21.5791,21.244 22.5,23.5C 20.9292,26.0934 18.5959,27.0934 15.5,26.5C 12.4306,25.1956 11.4306,23.1956 12.5,20.5 Z"/></g>
<g><path style="opacity:0.106" fill="#eb2200" d="M 28.5,22.5 C 29.7498,22.5774 30.5831,23.244 31,24.5C 32.1448,24.3809 33.3115,24.0476 34.5,23.5C 35.8103,26.4732 37.8103,28.8065 40.5,30.5C 38.742,30.1231 37.0754,29.4565 35.5,28.5C 31.3697,32.6016 30.703,32.1016 33.5,27C 30.8986,24.5017 29.5653,25.0017 29.5,28.5C 27.0833,29.6266 25.0833,29.6266 23.5,28.5C 23.4614,27.2438 23.9614,26.2438 25,25.5C 27.3065,26.3903 28.4732,25.3903 28.5,22.5 Z"/></g>
<g><path style="opacity:0.004" fill="#313f45" d="M 49.5,25.5 C 50.8333,26.1667 50.8333,26.1667 49.5,25.5 Z"/></g>
<g><path style="opacity:1" fill="#c89a26" d="M 7.5,23.5 C 10.1992,27.2662 11.5326,31.5995 11.5,36.5C 10.0609,32.9619 8.39422,29.4619 6.5,26C 7.25244,25.3292 7.58577,24.4959 7.5,23.5 Z"/></g>
<g><path style="opacity:0.024" fill="#dc2400" d="M 43.5,25.5 C 42.1667,25.8333 42.1667,26.1667 43.5,26.5C 43.405,28.7857 42.7384,30.7857 41.5,32.5C 41.1667,32.5 40.8333,32.5 40.5,32.5C 40.5,31.8333 40.5,31.1667 40.5,30.5C 37.8103,28.8065 35.8103,26.4732 34.5,23.5C 36.4773,24.8715 38.1439,24.5382 39.5,22.5C 42.3714,21.0136 43.7047,22.0136 43.5,25.5 Z"/></g>
<g><path style="opacity:0.102" fill="#df2000" d="M 40.5,30.5 C 40.5,31.1667 40.5,31.8333 40.5,32.5C 39.4005,37.3848 38.0672,37.5515 36.5,33C 34.7412,32.2025 33.0745,32.3691 31.5,33.5C 32.2427,34.1818 32.9094,34.8485 33.5,35.5C 32.5041,35.4142 31.6708,35.7476 31,36.5C 29.0083,35.3353 27.175,34.002 25.5,32.5C 24.1938,31.5326 23.5271,30.1993 23.5,28.5C 25.0833,29.6266 27.0833,29.6266 29.5,28.5C 29.5653,25.0017 30.8986,24.5017 33.5,27C 30.703,32.1016 31.3697,32.6016 35.5,28.5C 37.0754,29.4565 38.742,30.1231 40.5,30.5 Z"/></g>
<g><path style="opacity:1" fill="#90d800" d="M 46.5,30.5 C 46.5,30.8333 46.5,31.1667 46.5,31.5C 44.9261,33.1016 44.2594,35.1016 44.5,37.5C 44.5,37.8333 44.5,38.1667 44.5,38.5C 43.0762,40.5145 42.4095,42.8478 42.5,45.5C 41.5041,45.4142 40.6708,45.7476 40,46.5C 39.5026,49.146 39.3359,51.8127 39.5,54.5C 39.1667,54.5 38.8333,54.5 38.5,54.5C 38.4672,50.1311 38.8005,45.7978 39.5,41.5C 39.5,41.1667 39.5,40.8333 39.5,40.5C 41.5548,36.5607 43.7215,32.5607 46,28.5C 46.4643,29.0944 46.631,29.7611 46.5,30.5 Z"/></g>
<g><path style="opacity:0.021" fill="#000000" d="M 51.5,37.5 C 50.6829,39.9686 50.1829,42.6353 50,45.5C 49.124,47.7582 47.9573,49.7582 46.5,51.5C 47.2632,44.5061 49.0965,37.8394 52,31.5C 52.6776,33.5976 52.5109,35.5976 51.5,37.5 Z"/></g>
<g><path style="opacity:0.015" fill="#000000" d="M 59.5,31.5 C 61.337,31.6395 61.6704,32.3061 60.5,33.5C 59.7025,33.0431 59.3691,32.3764 59.5,31.5 Z"/></g>
<g><path style="opacity:0.996" fill="#eed600" d="M 9.5,17.5 C 10.5029,22.1908 11.5029,26.8575 12.5,31.5C 12.3389,34.5279 13.0056,37.3612 14.5,40C 14.3333,40.5 14.1667,41 14,41.5C 13.3918,39.9336 12.5585,38.6002 11.5,37.5C 11.5,37.1667 11.5,36.8333 11.5,36.5C 11.5326,31.5995 10.1992,27.2662 7.5,23.5C 7.5,23.1667 7.5,22.8333 7.5,22.5C 7.07729,20.2188 7.74395,18.5521 9.5,17.5 Z"/></g>
<g><path style="opacity:0.135" fill="#f14200" d="M 16.5,29.5 C 19.5317,30.9991 21.0317,33.3324 21,36.5C 18.6697,33.8179 18.1697,34.1512 19.5,37.5C 18.675,38.3857 17.675,38.719 16.5,38.5C 15.2638,36.351 14.2638,34.0177 13.5,31.5C 13.4017,28.7524 14.4017,28.0857 16.5,29.5 Z"/></g>
<g><path style="opacity:0.024" fill="#9e7438" d="M 46.5,31.5 C 46.7406,33.8984 46.0739,35.8984 44.5,37.5C 44.2594,35.1016 44.9261,33.1016 46.5,31.5 Z"/></g>
<g><path style="opacity:0.114" fill="#f12e00" d="M 16.5,29.5 C 16.5,29.1667 16.5,28.8333 16.5,28.5C 18.8333,29.8333 21.1667,29.8333 23.5,28.5C 23.5271,30.1993 24.1938,31.5326 25.5,32.5C 25.2011,34.604 25.5344,36.604 26.5,38.5C 27.1924,37.9747 27.6924,37.3081 28,36.5C 28.8077,38.5787 28.641,40.5787 27.5,42.5C 26.5,41.8333 25.5,41.1667 24.5,40.5C 23.6922,42.4233 23.1922,44.4233 23,46.5C 22.1841,45.1772 21.0174,44.5106 19.5,44.5C 17.9925,42.8185 16.9925,40.8185 16.5,38.5C 17.675,38.719 18.675,38.3857 19.5,37.5C 18.1697,34.1512 18.6697,33.8179 21,36.5C 21.0317,33.3324 19.5317,30.9991 16.5,29.5 Z"/></g>
<g><path style="opacity:0.996" fill="#e79b0f" d="M 12.5,31.5 C 12.8333,31.5 13.1667,31.5 13.5,31.5C 14.2638,34.0177 15.2638,36.351 16.5,38.5C 16.9925,40.8185 17.9925,42.8185 19.5,44.5C 19.5,44.8333 19.5,45.1667 19.5,45.5C 19.5,47.1667 19.5,48.8333 19.5,50.5C 18.5,50.5 17.5,50.5 16.5,50.5C 14.5235,46.2258 12.8569,41.8925 11.5,37.5C 12.5585,38.6002 13.3918,39.9336 14,41.5C 14.1667,41 14.3333,40.5 14.5,40C 13.0056,37.3612 12.3389,34.5279 12.5,31.5 Z"/></g>
<g><path style="opacity:0.035" fill="#d02300" d="M 40.5,32.5 C 40.8333,32.5 41.1667,32.5 41.5,32.5C 41.0372,35.221 40.3705,37.8877 39.5,40.5C 39.5,40.8333 39.5,41.1667 39.5,41.5C 38.3485,43.7791 37.3485,46.1124 36.5,48.5C 36.2267,41.3478 35.06,41.0145 33,47.5C 32.7583,44.1204 33.5917,40.9537 35.5,38C 35.3613,36.699 34.6946,35.8656 33.5,35.5C 32.9094,34.8485 32.2427,34.1818 31.5,33.5C 33.0745,32.3691 34.7412,32.2025 36.5,33C 38.0672,37.5515 39.4005,37.3848 40.5,32.5 Z"/></g>
<g><path style="opacity:0.004" fill="#000000" d="M 51.5,37.5 C 52.8333,38.1667 52.8333,38.1667 51.5,37.5 Z"/></g>
<g><path style="opacity:0.056" fill="#e72400" d="M 25.5,32.5 C 27.175,34.002 29.0083,35.3353 31,36.5C 31.6708,35.7476 32.5041,35.4142 33.5,35.5C 34.6946,35.8656 35.3613,36.699 35.5,38C 33.5917,40.9537 32.7583,44.1204 33,47.5C 35.06,41.0145 36.2267,41.3478 36.5,48.5C 36.4431,49.609 36.1098,50.609 35.5,51.5C 34.3926,52.9923 32.8926,53.9923 31,54.5C 27.1876,53.5207 24.021,51.5207 21.5,48.5C 21.0679,47.2905 20.4013,46.2905 19.5,45.5C 19.5,45.1667 19.5,44.8333 19.5,44.5C 21.0174,44.5106 22.1841,45.1772 23,46.5C 23.1922,44.4233 23.6922,42.4233 24.5,40.5C 25.5,41.1667 26.5,41.8333 27.5,42.5C 28.641,40.5787 28.8077,38.5787 28,36.5C 27.6924,37.3081 27.1924,37.9747 26.5,38.5C 25.5344,36.604 25.2011,34.604 25.5,32.5 Z"/></g>
<g><path style="opacity:0.004" fill="#996b4a" d="M 44.5,38.5 C 44.8294,41.2282 44.1628,43.5615 42.5,45.5C 42.4095,42.8478 43.0762,40.5145 44.5,38.5 Z"/></g>
<g><path style="opacity:0.992" fill="#9d9413" d="M 42.5,45.5 C 42.2525,48.8539 41.2525,51.8539 39.5,54.5C 39.3359,51.8127 39.5026,49.146 40,46.5C 40.6708,45.7476 41.5041,45.4142 42.5,45.5 Z"/></g>
<g><path style="opacity:0.996" fill="#decb00" d="M 39.5,41.5 C 38.8005,45.7978 38.4672,50.1311 38.5,54.5C 38.5852,55.9953 37.9185,56.9953 36.5,57.5C 35.5344,55.604 35.2011,53.604 35.5,51.5C 36.1098,50.609 36.4431,49.609 36.5,48.5C 37.3485,46.1124 38.3485,43.7791 39.5,41.5 Z"/></g>
<g><path style="opacity:0.026" fill="#000000" d="M 46.5,51.5 C 46.3605,53.337 45.6939,53.6704 44.5,52.5C 44.9569,51.7025 45.6236,51.3691 46.5,51.5 Z"/></g>
<g><path style="opacity:0.004" fill="#000000" d="M 59.5,53.5 C 59.8966,52.475 60.5632,52.3083 61.5,53C 60.9056,53.4643 60.2389,53.631 59.5,53.5 Z"/></g>
<g><path style="opacity:0.004" fill="#000000" d="M 44.5,55.5 C 45.9473,56.6222 46.9473,58.1222 47.5,60C 45.5394,59.4893 44.5394,57.9893 44.5,55.5 Z"/></g>
<g><path style="opacity:0.958" fill="#ce5703" d="M 21.5,48.5 C 24.021,51.5207 27.1876,53.5207 31,54.5C 32.8926,53.9923 34.3926,52.9923 35.5,51.5C 35.2011,53.604 35.5344,55.604 36.5,57.5C 37.9185,56.9953 38.5852,55.9953 38.5,54.5C 38.8333,54.5 39.1667,54.5 39.5,54.5C 39.1071,59.7255 36.2738,62.3922 31,62.5C 26.0498,62.279 22.5498,59.9457 20.5,55.5C 21.9403,56.3629 23.2736,56.3629 24.5,55.5C 25.8233,57.6824 27.4899,58.3491 29.5,57.5C 26.0743,55.0801 23.4076,52.0801 21.5,48.5 Z"/></g>
<g><path style="opacity:0.945" fill="#ef7303" d="M 19.5,45.5 C 20.4013,46.2905 21.0679,47.2905 21.5,48.5C 23.4076,52.0801 26.0743,55.0801 29.5,57.5C 27.4899,58.3491 25.8233,57.6824 24.5,55.5C 23.2736,56.3629 21.9403,56.3629 20.5,55.5C 18.9373,54.0552 17.604,52.3885 16.5,50.5C 17.5,50.5 18.5,50.5 19.5,50.5C 19.5,48.8333 19.5,47.1667 19.5,45.5 Z"/></g>
<g><path style="opacity:0.013" fill="#000000" d="M 63.5,58.5 C 63.5,59.8333 63.5,61.1667 63.5,62.5C 60.6065,61.409 58.1065,61.409 56,62.5C 54.5596,61.0696 54.2263,59.403 55,57.5C 56.5298,58.636 57.8631,59.636 59,60.5C 59.3333,59.8333 59.6667,59.1667 60,58.5C 60.9862,59.1712 62.1529,59.1712 63.5,58.5 Z"/></g>
</svg>
