<?xml version="1.0" standalone="no"?>
<!DOCTYPE svg PUBLIC "-//W3C//DTD SVG 20010904//EN"
 "http://www.w3.org/TR/2001/REC-SVG-20010904/DTD/svg10.dtd">
<svg version="1.0" xmlns="http://www.w3.org/2000/svg"
 width="64.000000pt" height="64.000000pt" viewBox="0 0 64.000000 64.000000"
 preserveAspectRatio="xMidYMid meet">

<g transform="translate(0.000000,64.000000) scale(0.100000,-0.100000)"
fill="#000000" stroke="none">
<path d="M78 518 c-26 -20 -58 -91 -67 -149 -23 -143 54 -282 188 -342 64 -28
178 -28 243 0 133 60 210 201 187 342 -9 58 -41 129 -67 149 -11 9 -76 12
-242 12 -166 0 -231 -3 -242 -12z m351 -54 c-9 -67 -18 -94 -31 -94 -7 0 -8
19 -3 58 5 31 8 64 9 72 0 9 7 16 16 16 14 0 15 -8 9 -52z m55 -34 c-20 -38
-40 -70 -45 -70 -36 0 41 136 79 140 2 0 -13 -31 -34 -70z m-187 19 c7 -13 13
-34 13 -46 0 -18 9 -23 50 -32 69 -15 129 -47 142 -77 10 -20 8 -28 -11 -48
-45 -48 -201 -116 -266 -116 -74 0 -108 67 -85 169 7 31 13 76 14 101 1 38 4
45 23 48 17 2 27 -6 43 -35 11 -21 19 -29 16 -18 -5 20 -9 74 -7 87 2 15 57
-11 68 -33z"/>
</g>
</svg>
