<svg version="1.1" id="Layer_1" xmlns="http://www.w3.org/2000/svg" xmlns:xlink="http://www.w3.org/1999/xlink" x="0px" y="0px"
	 width="100%" viewBox="0 0 64 64" enable-background="new 0 0 64 64" xml:space="preserve">
<path fill="#266BC2" opacity="1.000000" stroke="none" 
	d="
M53.000000,65.000000 
	C38.979103,65.000000 24.958210,65.000000 10.471544,64.549896 
	C10.032369,61.397263 10.058962,58.694721 10.528503,55.993866 
	C25.025223,55.995552 39.078995,55.995552 53.000000,55.995552 
	C53.000000,59.740326 53.000000,62.370163 53.000000,65.000000 
z"/>
<path fill="#2A6FC9" opacity="1.000000" stroke="none" 
	d="
M53.375000,65.000000 
	C53.000000,62.370163 53.000000,59.740326 53.000000,55.995552 
	C39.078995,55.995552 25.025223,55.995552 10.185478,55.773651 
	C6.599671,55.367832 3.799835,55.183918 1.000000,55.000000 
	C1.000000,54.250000 1.000000,53.500000 1.401289,52.372192 
	C6.558025,50.987934 11.313474,49.981483 16.390049,49.131950 
	C18.445349,49.915379 20.179522,50.541885 22.190838,51.305542 
	C23.674501,51.347122 24.881020,51.251553 26.503311,51.185547 
	C32.279533,49.516975 37.639977,47.818836 43.156799,46.444603 
	C44.915176,47.481300 46.457367,48.574253 48.130104,48.837425 
	C53.728249,49.718170 59.373058,50.302284 65.000000,51.000000 
	C65.000000,52.066669 65.000000,53.133339 64.559631,54.605095 
	C53.853241,54.924141 55.815018,55.388916 55.974155,63.042202 
	C55.987728,63.694695 55.991615,64.347397 56.000000,65.000000 
	C55.250000,65.000000 54.500000,65.000000 53.375000,65.000000 
z"/>
<path fill="#348EFC" opacity="1.000000" stroke="none" 
	d="
M11.000000,1.000000 
	C25.354227,1.000000 39.708454,1.000000 54.532547,1.449678 
	C55.021698,4.594281 55.040989,7.289206 54.587849,9.987392 
	C41.823147,9.993751 29.530499,10.045671 17.238949,9.952677 
	C15.150179,9.936874 13.066113,9.299206 10.987337,8.509627 
	C10.996534,5.713612 10.998267,3.356806 11.000000,1.000000 
z"/>
<path fill="#338AF6" opacity="1.000000" stroke="none" 
	d="
M10.979873,8.948835 
	C13.066113,9.299206 15.150179,9.936874 17.238949,9.952677 
	C29.530499,10.045671 41.823147,9.993751 54.875439,10.126120 
	C56.766579,10.828002 57.897697,11.394421 58.821518,12.244041 
	C57.044720,13.250059 55.487572,14.001444 53.901855,14.686729 
	C52.612480,15.243949 51.288860,15.721932 49.710148,16.149914 
	C49.254169,16.033098 49.068470,16.001421 48.580887,15.830437 
	C47.204636,15.455389 46.130268,15.219647 44.704521,15.009661 
	C44.119366,15.054652 43.885601,15.073890 43.397903,15.117328 
	C42.805866,15.110737 42.467762,15.079946 41.712952,14.958263 
	C31.262926,14.578877 21.225670,14.381882 11.198448,13.951200 
	C7.787306,13.804688 5.485424,15.021173 3.625566,17.999603 
	C2.500324,18.000444 1.750162,18.000221 1.000000,18.000000 
	C1.000000,15.958333 1.000000,13.916667 1.353663,11.585024 
	C5.354221,12.710547 8.463926,12.002997 10.979873,8.948835 
z"/>
<path fill="#2A76D2" opacity="1.000000" stroke="none" 
	d="
M65.000000,50.541931 
	C59.373058,50.302284 53.728249,49.718170 48.130104,48.837425 
	C46.457367,48.574253 44.915176,47.481300 43.450424,46.274372 
	C45.787258,43.855568 47.986851,41.930908 50.640877,40.004715 
	C55.730202,40.002113 60.365101,40.001057 65.000000,40.000000 
	C65.000000,43.361286 65.000000,46.722576 65.000000,50.541931 
z"/>
<path fill="#2F80E4" opacity="1.000000" stroke="none" 
	d="
M65.000000,25.000000 
	C65.000000,27.042318 65.000000,29.084635 64.542542,31.563656 
	C59.600929,32.703747 54.299435,30.051750 50.611786,35.048149 
	C48.881382,33.587963 47.440083,32.291515 45.968796,30.574120 
	C45.931385,29.590357 45.923958,29.027544 45.943031,28.148975 
	C46.698936,26.557194 47.428345,25.281172 48.554672,24.097071 
	C54.301056,24.459328 59.650528,24.729664 65.000000,25.000000 
z"/>
<path fill="#2E80E3" opacity="1.000000" stroke="none" 
	d="
M1.000000,34.000000 
	C1.000000,31.299370 1.000000,28.598742 1.461969,25.449188 
	C6.593310,24.328474 11.262682,23.656683 15.998806,23.356424 
	C16.183468,24.470301 16.301378,25.212643 16.442963,26.315605 
	C15.922319,29.118586 15.378004,31.560949 14.379463,34.002640 
	C9.616826,34.001308 5.308413,34.000656 1.000000,34.000000 
z"/>
<path fill="#2C7AD9" opacity="1.000000" stroke="none" 
	d="
M1.000000,34.449982 
	C5.308413,34.000656 9.616826,34.001308 14.441317,34.406628 
	C14.582470,37.209328 14.207546,39.607361 13.394321,42.004391 
	C8.970680,42.335587 4.985340,42.667793 1.000000,43.000000 
	C1.000000,40.299988 1.000000,37.599972 1.000000,34.449982 
z"/>
<path fill="#2D7BDC" opacity="1.000000" stroke="none" 
	d="
M50.900890,35.211891 
	C54.299435,30.051750 59.600929,32.703747 64.542542,32.000179 
	C65.000000,34.370556 65.000000,36.741116 65.000000,39.555836 
	C60.365101,40.001057 55.730202,40.002113 50.684410,39.651657 
	C50.482643,37.937389 50.691765,36.574642 50.900890,35.211891 
z"/>
<path fill="#2A73D1" opacity="1.000000" stroke="none" 
	d="
M1.000000,43.449982 
	C4.985340,42.667793 8.970680,42.335587 13.459109,42.383698 
	C14.664440,44.834351 15.366681,46.904690 16.068922,48.975033 
	C11.313474,49.981483 6.558025,50.987934 1.401289,51.997192 
	C1.000000,49.299988 1.000000,46.599972 1.000000,43.449982 
z"/>
<path fill="#0081FF" opacity="1.000000" stroke="none" 
	d="
M59.028820,11.960838 
	C57.897697,11.394421 56.766579,10.828002 55.347866,10.122858 
	C55.040989,7.289206 55.021698,4.594281 55.001205,1.449678 
	C58.257576,1.000000 61.515152,1.000000 65.000000,1.000000 
	C65.000000,4.342758 65.000000,7.688423 64.599991,11.518751 
	C63.133881,12.032750 62.067787,12.062086 60.672852,12.067867 
	C59.905617,12.016488 59.467216,11.988663 59.028820,11.960838 
z"/>
<path fill="#3085ED" opacity="1.000000" stroke="none" 
	d="
M15.932053,22.984892 
	C11.262682,23.656683 6.593310,24.328474 1.461969,25.000134 
	C1.000000,22.958334 1.000000,20.916666 1.000000,18.437500 
	C1.750162,18.000221 2.500324,18.000444 4.077237,18.000050 
	C9.315028,18.687338 13.726068,19.375242 18.094517,20.270054 
	C18.051926,20.476957 17.967958,20.891012 17.691063,21.003712 
	C16.920128,21.739239 16.426090,22.362064 15.932053,22.984892 
z"/>
<path fill="#0081FF" opacity="1.000000" stroke="none" 
	d="
M10.987337,8.509626 
	C8.463926,12.002997 5.354221,12.710547 1.353663,11.147524 
	C1.000000,7.747543 1.000000,4.495087 1.000000,1.000000 
	C4.006597,1.000000 7.016734,1.000000 10.513435,1.000000 
	C10.998267,3.356806 10.996534,5.713612 10.987337,8.509626 
z"/>
<path fill="#3085EC" opacity="1.000000" stroke="none" 
	d="
M65.000000,24.571537 
	C59.650528,24.729664 54.301056,24.459328 48.599033,23.755943 
	C49.202145,21.216070 50.157803,19.109243 51.460072,17.137613 
	C56.204453,17.848539 60.602226,18.424271 65.000000,19.000000 
	C65.000000,20.714357 65.000000,22.428717 65.000000,24.571537 
z"/>
<path fill="#0081C3" opacity="1.000000" stroke="none" 
	d="
M56.491051,65.000000 
	C55.991615,64.347397 55.987728,63.694695 55.974155,63.042202 
	C55.815018,55.388916 53.853241,54.924141 64.559631,55.005089 
	C65.000000,58.246471 65.000000,61.492939 65.000000,65.000000 
	C62.330299,65.000000 59.656197,65.000000 56.491051,65.000000 
z"/>
<path fill="#0081C3" opacity="1.000000" stroke="none" 
	d="
M1.000000,55.486565 
	C3.799835,55.183918 6.599671,55.367832 9.742531,55.771965 
	C10.058962,58.694721 10.032369,61.397263 10.002888,64.549896 
	C7.076724,65.000000 4.153447,65.000000 1.000000,65.000000 
	C1.000000,61.993149 1.000000,58.983139 1.000000,55.486565 
z"/>
<path fill="#3188F2" opacity="1.000000" stroke="none" 
	d="
M65.000000,18.750000 
	C60.602226,18.424271 56.204453,17.848539 51.321098,16.982536 
	C50.691868,16.438711 50.482517,16.263798 50.161903,16.222084 
	C50.116352,16.276640 49.980427,16.235056 49.980427,16.235054 
	C51.288860,15.721932 52.612480,15.243949 53.901855,14.686729 
	C55.487572,14.001444 57.044720,13.250059 58.821518,12.244041 
	C59.467216,11.988663 59.905617,12.016488 60.679947,12.428190 
	C62.343922,14.541379 63.671959,16.270691 65.000000,18.000000 
	C65.000000,18.000000 65.000000,18.500000 65.000000,18.750000 
z"/>
<path fill="#338AF6" opacity="1.000000" stroke="none" 
	d="
M65.000000,17.571537 
	C63.671959,16.270691 62.343922,14.541379 61.008789,12.451745 
	C62.067787,12.062086 63.133881,12.032750 64.599991,12.001707 
	C65.000000,13.714358 65.000000,15.428716 65.000000,17.571537 
z"/>
<path fill="#E9EFFA" opacity="1.000000" stroke="none" 
	d="
M17.967958,20.891012 
	C17.967958,20.891012 18.051926,20.476957 18.409266,20.278694 
	C19.531816,20.383364 20.297026,20.686300 21.197426,21.301811 
	C21.822090,22.242018 22.209824,23.031256 22.843336,23.430094 
	C23.167158,23.633963 23.931364,23.138329 24.720566,22.828789 
	C24.767765,21.810661 24.590923,20.922600 24.371910,19.765312 
	C24.545776,18.997412 24.761814,18.498735 25.249775,17.964647 
	C26.029713,17.769386 26.537729,17.609539 27.173489,17.688974 
	C27.901297,18.275549 28.501360,18.622837 29.343863,19.060059 
	C29.773745,19.434271 29.961191,19.718552 30.096563,20.376812 
	C31.538853,25.730618 33.904835,29.632057 40.393044,28.954666 
	C42.483822,29.707413 44.241306,30.351242 45.998787,30.995071 
	C47.440083,32.291515 48.881382,33.587963 50.611786,35.048149 
	C50.691765,36.574642 50.482643,37.937389 50.229984,39.653198 
	C47.986851,41.930908 45.787258,43.855568 43.294044,45.950462 
	C37.639977,47.818836 32.279533,49.516975 26.240700,50.972710 
	C24.346106,50.876335 23.129900,51.022366 21.913692,51.168392 
	C20.179522,50.541885 18.445349,49.915379 16.390049,49.131950 
	C15.366681,46.904690 14.664440,44.834351 13.897411,42.384705 
	C14.207546,39.607361 14.582470,37.209328 14.895541,34.407303 
	C15.378004,31.560949 15.922319,29.118586 16.724646,26.127209 
	C17.311090,24.015799 17.639524,22.453405 17.967958,20.891012 
z"/>
<path fill="#FDFDFE" opacity="1.000000" stroke="none" 
	d="
M22.190838,51.305542 
	C23.129900,51.022366 24.346106,50.876335 25.824924,50.943146 
	C24.881020,51.251553 23.674501,51.347122 22.190838,51.305542 
z"/>
<path fill="#3288F3" opacity="1.000000" stroke="none" 
	d="
M27.045746,17.449690 
	C26.537729,17.609539 26.029713,17.769386 24.962099,18.101570 
	C23.289080,19.179012 22.175659,20.084124 21.062237,20.989235 
	C20.297026,20.686300 19.531816,20.383364 18.451857,20.071789 
	C13.726068,19.375242 9.315028,18.687338 4.452317,17.998989 
	C5.485424,15.021173 7.787306,13.804688 11.198448,13.951200 
	C21.225670,14.381882 31.262926,14.578877 41.664841,15.303871 
	C41.730335,16.823925 41.427250,17.907476 40.678650,18.992653 
	C36.871635,19.330463 33.510136,19.666647 30.148638,20.002832 
	C29.961191,19.718552 29.773745,19.434271 29.264599,18.769699 
	C28.310514,18.076170 27.678129,17.762930 27.045746,17.449690 
z"/>
<path fill="#3188F2" opacity="1.000000" stroke="none" 
	d="
M45.055904,14.983906 
	C46.130268,15.219647 47.204636,15.455389 48.650688,16.191366 
	C49.061409,16.933199 49.100433,17.174795 49.064339,17.723417 
	C48.032669,19.419207 47.076122,20.807970 45.957069,21.825302 
	C45.548344,19.297216 45.302124,17.140562 45.055904,14.983906 
z"/>
<path fill="#FDFDFC" opacity="1.000000" stroke="none" 
	d="
M41.124168,18.991028 
	C41.427250,17.907476 41.730335,16.823925 42.081539,15.394764 
	C42.467762,15.079946 42.805866,15.110737 43.403603,15.508970 
	C43.390251,17.910219 43.117264,19.944025 42.646130,21.869637 
	C42.065056,21.522179 41.682133,21.282915 41.261726,20.701313 
	C41.190887,19.902994 41.157528,19.447012 41.124168,18.991028 
z"/>
<path fill="#0877EC" opacity="1.000000" stroke="none" 
	d="
M42.844280,21.977831 
	C43.117264,19.944025 43.390251,17.910219 43.657532,15.484772 
	C43.885601,15.073890 44.119366,15.054652 44.704521,15.009661 
	C45.302124,17.140562 45.548344,19.297216 45.936569,22.013863 
	C46.011677,22.842464 45.848061,23.023817 45.253052,23.207375 
	C44.265884,23.526773 43.613396,23.756702 42.909946,23.653656 
	C42.854080,22.873064 42.849178,22.425447 42.844280,21.977831 
z"/>
<path fill="#0879F0" opacity="1.000000" stroke="none" 
	d="
M49.139462,17.416391 
	C49.100433,17.174795 49.061409,16.933199 48.952576,16.330673 
	C49.068470,16.001421 49.254169,16.033098 49.710148,16.149916 
	C49.980427,16.235056 50.116352,16.276640 50.059837,16.486584 
	C49.715366,16.936481 49.427414,17.176437 49.139462,17.416391 
z"/>
<path fill="#F8FAFD" opacity="1.000000" stroke="none" 
	d="
M49.064339,17.723417 
	C49.427414,17.176437 49.715366,16.936481 50.105389,16.432026 
	C50.482517,16.263798 50.691868,16.438711 50.974487,16.847343 
	C50.157803,19.109243 49.202145,21.216070 48.202118,23.664022 
	C47.428345,25.281172 46.698936,26.557194 45.656052,28.187073 
	C45.424301,26.733255 45.506016,24.925581 45.587730,23.117907 
	C45.848061,23.023817 46.011677,22.842464 46.099075,22.385292 
	C47.076122,20.807970 48.032669,19.419207 49.064339,17.723417 
z"/>
<path fill="#046BE1" opacity="1.000000" stroke="none" 
	d="
M45.253052,23.207375 
	C45.506016,24.925581 45.424301,26.733255 45.629559,28.502831 
	C45.923958,29.027544 45.931385,29.590357 45.968796,30.574120 
	C44.241306,30.351242 42.483822,29.707413 40.495888,28.761921 
	C40.499744,28.093996 40.734055,27.727734 41.288548,27.236420 
	C42.059456,26.069788 42.510185,25.028212 42.960911,23.986633 
	C43.613396,23.756702 44.265884,23.526773 45.253052,23.207375 
z"/>
<path fill="#FDFDFC" opacity="1.000000" stroke="none" 
	d="
M17.691063,21.003712 
	C17.639524,22.453405 17.311090,24.015799 16.700974,25.766590 
	C16.301378,25.212643 16.183468,24.470301 15.998805,23.356424 
	C16.426090,22.362064 16.920128,21.739239 17.691063,21.003712 
z"/>
<path fill="#2F83EB" opacity="1.000000" stroke="none" 
	d="
M40.968365,27.361471 
	C40.734055,27.727734 40.499744,28.093996 40.162590,28.653004 
	C33.904835,29.632057 31.538853,25.730618 30.096563,20.376812 
	C33.510136,19.666647 36.871635,19.330463 40.678650,18.992653 
	C41.157528,19.447012 41.190887,19.902994 41.143120,21.141605 
	C41.030785,23.736645 40.999573,25.549059 40.968365,27.361471 
z"/>
<path fill="#0471E9" opacity="1.000000" stroke="none" 
	d="
M21.197426,21.301811 
	C22.175659,20.084124 23.289080,19.179012 24.690178,18.136982 
	C24.761814,18.498735 24.545776,18.997412 24.266788,20.125290 
	C24.301401,21.489279 24.398966,22.224068 24.496529,22.958855 
	C23.931364,23.138329 23.167158,23.633963 22.843336,23.430094 
	C22.209824,23.031256 21.822090,22.242018 21.197426,21.301811 
z"/>
<path fill="#FDFDFC" opacity="1.000000" stroke="none" 
	d="
M24.720566,22.828789 
	C24.398966,22.224068 24.301401,21.489279 24.308960,20.394516 
	C24.590923,20.922600 24.767765,21.810661 24.720566,22.828789 
z"/>
<path fill="#FDFDFC" opacity="1.000000" stroke="none" 
	d="
M27.173489,17.688974 
	C27.678129,17.762930 28.310514,18.076170 29.022161,18.679768 
	C28.501360,18.622837 27.901297,18.275549 27.173489,17.688974 
z"/>
<path fill="#FFFFFE" opacity="1.000000" stroke="none" 
	d="
M41.288548,27.236420 
	C40.999573,25.549059 41.030785,23.736645 41.180603,21.483940 
	C41.682133,21.282915 42.065056,21.522179 42.646130,21.869637 
	C42.849178,22.425447 42.854080,22.873064 42.909946,23.653656 
	C42.510185,25.028212 42.059456,26.069788 41.288548,27.236420 
z"/>
</svg>