<?xml version="1.0" encoding="UTF-8"?>
<!DOCTYPE svg PUBLIC "-//W3C//DTD SVG 1.1//EN" "http://www.w3.org/Graphics/SVG/1.1/DTD/svg11.dtd">
<svg xmlns="http://www.w3.org/2000/svg" version="1.1" width="64px" height="64px" style="shape-rendering:geometricPrecision; text-rendering:geometricPrecision; image-rendering:optimizeQuality; fill-rule:evenodd; clip-rule:evenodd" xmlns:xlink="http://www.w3.org/1999/xlink">
<g><path style="opacity:0.992" fill="#368bf7" d="M 23.5,-0.5 C 28.8333,-0.5 34.1667,-0.5 39.5,-0.5C 49.6526,2.98241 56.9859,9.64907 61.5,19.5C 58.418,17.819 55.0847,17.1524 51.5,17.5C 51.7373,16.209 51.404,15.209 50.5,14.5C 49.5041,14.4142 48.6708,14.7476 48,15.5C 46.3909,18.4068 44.5576,21.0734 42.5,23.5C 42.5654,23.0618 42.3988,22.7284 42,22.5C 41.7679,23.7375 41.2679,24.7375 40.5,25.5C 41.3307,21.5239 41.4973,17.5239 41,13.5C 40.8019,15.3817 40.3019,17.0484 39.5,18.5C 39.6427,16.7376 39.3094,15.0709 38.5,13.5C 27.7731,12.8117 17.1064,12.1451 6.5,11.5C 11.0082,5.75544 16.6749,1.75544 23.5,-0.5 Z"/></g>
<g><path style="opacity:1" fill="#2f81e8" d="M 6.5,11.5 C 17.1064,12.1451 27.7731,12.8117 38.5,13.5C 39.3094,15.0709 39.6427,16.7376 39.5,18.5C 39.5,19.1667 39.5,19.8333 39.5,20.5C 38.2072,22.3635 38.2072,24.3635 39.5,26.5C 40.1067,26.3764 40.44,26.0431 40.5,25.5C 41.2679,24.7375 41.7679,23.7375 42,22.5C 42.3988,22.7284 42.5654,23.0618 42.5,23.5C 42.238,24.9778 42.5713,26.3112 43.5,27.5C 46.4023,23.4479 48.7356,19.1146 50.5,14.5C 51.404,15.209 51.7373,16.209 51.5,17.5C 55.0847,17.1524 58.418,17.819 61.5,19.5C 61.9887,20.9952 62.6554,22.3285 63.5,23.5C 63.5,26.5 63.5,29.5 63.5,32.5C 59.4454,32.1758 55.4454,32.5091 51.5,33.5C 51.0057,35.0255 50.339,36.3588 49.5,37.5C 49.7307,34.2155 48.3974,31.7155 45.5,30C 40.3871,27.8696 35.0537,26.7029 29.5,26.5C 29.6646,23.4816 29.498,20.4816 29,17.5C 27,14.8333 25,14.8333 23,17.5C 22.7468,20.2004 22.7468,22.867 23,25.5C 21.9563,24.3774 21.2896,23.0441 21,21.5C 17.8086,17.3418 15.6419,17.8418 14.5,23C 14.7695,24.5143 15.1029,26.0143 15.5,27.5C 14.238,30.022 13.5713,32.6887 13.5,35.5C 12.8826,35.3893 12.3826,35.056 12,34.5C 11.51,35.7932 11.3433,37.1266 11.5,38.5C 7.89364,38.7892 4.39364,38.4558 1,37.5C 0.535656,38.0944 0.368989,38.7611 0.5,39.5C 0.166667,39.5 -0.166667,39.5 -0.5,39.5C -0.5,34.1667 -0.5,28.8333 -0.5,23.5C 0.796565,18.9085 3.1299,14.9085 6.5,11.5 Z"/></g>
<g><path style="opacity:1" fill="#f7f9fb" d="M 40.5,25.5 C 39.5489,24.0813 39.2155,22.4147 39.5,20.5C 39.5,19.8333 39.5,19.1667 39.5,18.5C 40.3019,17.0484 40.8019,15.3817 41,13.5C 41.4973,17.5239 41.3307,21.5239 40.5,25.5 Z"/></g>
<g><path style="opacity:1" fill="#e8eff9" d="M 49.5,37.5 C 41.6273,44.3509 32.4606,48.6842 22,50.5C 19.2719,50.4428 16.9386,49.4428 15,47.5C 13.6463,43.6372 13.1463,39.6372 13.5,35.5C 13.5713,32.6887 14.238,30.022 15.5,27.5C 15.1029,26.0143 14.7695,24.5143 14.5,23C 15.6419,17.8418 17.8086,17.3418 21,21.5C 21.2896,23.0441 21.9563,24.3774 23,25.5C 22.7468,22.867 22.7468,20.2004 23,17.5C 25,14.8333 27,14.8333 29,17.5C 29.498,20.4816 29.6646,23.4816 29.5,26.5C 35.0537,26.7029 40.3871,27.8696 45.5,30C 48.3974,31.7155 49.7307,34.2155 49.5,37.5 Z"/></g>
<g><path style="opacity:1" fill="#dce7f9" d="M 50.5,14.5 C 48.7356,19.1146 46.4023,23.4479 43.5,27.5C 42.5713,26.3112 42.238,24.9778 42.5,23.5C 44.5576,21.0734 46.3909,18.4068 48,15.5C 48.6708,14.7476 49.5041,14.4142 50.5,14.5 Z"/></g>
<g><path style="opacity:1" fill="#7caaee" d="M 39.5,20.5 C 39.2155,22.4147 39.5489,24.0813 40.5,25.5C 40.44,26.0431 40.1067,26.3764 39.5,26.5C 38.2072,24.3635 38.2072,22.3635 39.5,20.5 Z"/></g>
<g><path style="opacity:0.992" fill="#2970c9" d="M 63.5,32.5 C 63.5,34.8333 63.5,37.1667 63.5,39.5C 59.1667,51.1667 51.1667,59.1667 39.5,63.5C 34.1667,63.5 28.8333,63.5 23.5,63.5C 11.7621,59.4283 4.09547,51.4283 0.5,39.5C 0.368989,38.7611 0.535656,38.0944 1,37.5C 4.39364,38.4558 7.89364,38.7892 11.5,38.5C 11.3433,37.1266 11.51,35.7932 12,34.5C 12.3826,35.056 12.8826,35.3893 13.5,35.5C 13.1463,39.6372 13.6463,43.6372 15,47.5C 16.9386,49.4428 19.2719,50.4428 22,50.5C 32.4606,48.6842 41.6273,44.3509 49.5,37.5C 50.339,36.3588 51.0057,35.0255 51.5,33.5C 55.4454,32.5091 59.4454,32.1758 63.5,32.5 Z"/></g>
</svg>
